<svg width="22" height="22" viewBox="0 0 22 22" fill="none" xmlns="http://www.w3.org/2000/svg">
<path d="M9.90687 12.0932H0C0.0673319 12.8115 0.207853 13.521 0.419375 14.2107H6.29062L2.46812 18.0332C2.91491 18.5829 3.41714 19.0852 3.96688 19.532L7.78937 15.7095V21.5807C8.47909 21.7922 9.1886 21.9328 9.90687 22.0001V12.0932ZM21.9381 12.0932H12.0312V22.0001C12.7495 21.9328 13.459 21.7922 14.1488 21.5807V14.2107H19.25C18.8334 15.2868 18.2124 16.272 17.4212 17.112V19.9376C19.3637 18.5241 20.7925 16.516 21.4913 14.2176V14.1763C21.5325 14.0457 21.5669 13.9082 21.6012 13.7707C21.6036 13.7341 21.6036 13.6973 21.6012 13.6607C21.6425 13.5095 21.67 13.3651 21.7044 13.2207V13.097C21.7044 12.9732 21.7525 12.8495 21.7731 12.7188C21.7702 12.6822 21.7702 12.6454 21.7731 12.6088C21.7731 12.492 21.8075 12.3751 21.8212 12.2582C21.8552 12.1998 21.8943 12.1446 21.9381 12.0932ZM11 8.3317e-05C8.24305 -0.010641 5.58259 1.01429 3.54543 2.87193C1.50826 4.72957 0.242937 7.28447 0 10.0307H7.49375L8.67625 7.92008H2.63312C2.81755 7.41218 3.04766 6.92205 3.32062 6.45571H9.50813L10.6906 4.33821H5.09437C6.71626 2.9061 8.8054 2.11576 10.9691 2.11576C13.1327 2.11576 15.2219 2.9061 16.8438 4.33821H11.2612L12.4438 6.45571H18.6313C18.904 6.92215 19.1341 7.41227 19.3188 7.92008H13.2687L14.4375 10.0307H21.9312C21.6893 7.29629 20.4338 4.75113 18.4112 2.89517C16.3886 1.0392 13.7451 0.00656084 11 8.3317e-05Z" fill="#0450F2"/>
</svg>
