<svg width="24" height="24" viewBox="0 0 24 24" fill="none" xmlns="http://www.w3.org/2000/svg">
    <path fill-rule="evenodd" clip-rule="evenodd" d="M12 22C17.5228 22 22 17.5228 22 12C22 6.47715 17.5228 2 12 2C6.47715 2 2 6.47715 2 12C2 17.5228 6.47715 22 12 22ZM12 22L11.7188 19.3813C11.3169 15.6391 8.3609 12.6831 4.61874 12.2812L2 12L4.61874 11.7188C8.3609 11.3169 11.3169 8.3609 11.7188 4.61874L12 2L12.2812 4.61874C12.6831 8.3609 15.6391 11.3169 19.3813 11.7188L22 12L19.3813 12.2812C15.6391 12.6831 12.6831 15.6391 12.2812 19.3813L12 22Z" fill="black"/>
</svg>
