<svg width="168" height="41" viewBox="0 0 168 41" fill="none" xmlns="http://www.w3.org/2000/svg">
    <g clip-path="url(#clip0_11_519)">
        <path fill-rule="evenodd" clip-rule="evenodd" d="M65.7961 13.2238V14.5574H67.1193V13.2238H65.7961Z" fill="#8D93A1"/>
        <path fill-rule="evenodd" clip-rule="evenodd" d="M65.7961 6.6167V7.95036H67.1193V6.6167H65.7961Z" fill="#8D93A1"/>
        <path fill-rule="evenodd" clip-rule="evenodd" d="M48.2514 37.4557V38.7847H49.5746V37.4557H48.2514Z" fill="#8D93A1"/>
        <path fill-rule="evenodd" clip-rule="evenodd" d="M39.4767 37.4557V38.7847H40.8047V37.4557H39.4767Z" fill="#8D93A1"/>
        <path fill-rule="evenodd" clip-rule="evenodd" d="M74.5708 37.4557V38.7847H75.894V37.4557H74.5708Z" fill="#8D93A1"/>
        <path fill-rule="evenodd" clip-rule="evenodd" d="M74.5708 13.2238V14.5574H75.894V13.2238H74.5708Z" fill="#8D93A1"/>
        <path fill-rule="evenodd" clip-rule="evenodd" d="M76.7622 13.2238V14.5574H78.0855V13.2238H76.7622Z" fill="#8D93A1"/>
        <path fill-rule="evenodd" clip-rule="evenodd" d="M57.0215 37.4557V38.7847H58.3494V37.4557H57.0215Z" fill="#8D93A1"/>
        <path fill-rule="evenodd" clip-rule="evenodd" d="M21.932 13.2238V14.5574H23.2552V13.2238H21.932Z" fill="#8D93A1"/>
        <path fill-rule="evenodd" clip-rule="evenodd" d="M35.0892 11.0229V12.3519H36.4172V11.0229H35.0892Z" fill="#8D93A1"/>
        <path fill-rule="evenodd" clip-rule="evenodd" d="M35.0892 13.2238V14.5574H36.4172V13.2238H35.0892Z" fill="#8D93A1"/>
        <path fill-rule="evenodd" clip-rule="evenodd" d="M70.1835 13.2238V14.5574H71.5068V13.2238H70.1835Z" fill="#8D93A1"/>
        <path fill-rule="evenodd" clip-rule="evenodd" d="M70.1835 6.6167V7.95036H71.5068V6.6167H70.1835Z" fill="#8D93A1"/>
        <path fill-rule="evenodd" clip-rule="evenodd" d="M74.5708 6.6167V7.95036H75.894V6.6167H74.5708Z" fill="#8D93A1"/>
        <path fill-rule="evenodd" clip-rule="evenodd" d="M52.6388 37.4557V38.7847H53.962V37.4557H52.6388Z" fill="#8D93A1"/>
        <path fill-rule="evenodd" clip-rule="evenodd" d="M43.8641 37.4557V38.7847H45.1874V37.4557H43.8641Z" fill="#8D93A1"/>
        <path fill-rule="evenodd" clip-rule="evenodd" d="M61.4087 37.4557V38.7847H62.7367V37.4557H61.4087Z" fill="#8D93A1"/>
        <path fill-rule="evenodd" clip-rule="evenodd" d="M61.4087 13.2238V14.5574H62.7367V13.2238H61.4087Z" fill="#8D93A1"/>
        <path fill-rule="evenodd" clip-rule="evenodd" d="M61.4087 11.0229V12.3519H62.7367V11.0229H61.4087Z" fill="#8D93A1"/>
        <path fill-rule="evenodd" clip-rule="evenodd" d="M30.7066 19.8354V21.1644H32.0299V19.8354H30.7066Z" fill="#8D93A1"/>
        <path fill-rule="evenodd" clip-rule="evenodd" d="M65.7961 19.8354V21.1644H67.1193V19.8354H65.7961Z" fill="#8D93A1"/>
        <path fill-rule="evenodd" clip-rule="evenodd" d="M48.2514 19.8354V21.1644H49.5746V19.8354H48.2514Z" fill="#8D93A1"/>
        <path fill-rule="evenodd" clip-rule="evenodd" d="M13.1575 19.8354V21.1644H14.4854V19.8354H13.1575Z" fill="#8D93A1"/>
        <path fill-rule="evenodd" clip-rule="evenodd" d="M39.4767 19.8354V21.1644H40.8047V19.8354H39.4767Z" fill="#8D93A1"/>
        <path fill-rule="evenodd" clip-rule="evenodd" d="M57.0215 19.8354V21.1644H58.3494V19.8354H57.0215Z" fill="#8D93A1"/>
        <path fill-rule="evenodd" clip-rule="evenodd" d="M21.932 19.8354V21.1644H23.2552V19.8354H21.932Z" fill="#8D93A1"/>
        <path fill-rule="evenodd" clip-rule="evenodd" d="M35.0892 19.8354V21.1644H36.4172V19.8354H35.0892Z" fill="#8D93A1"/>
        <path fill-rule="evenodd" clip-rule="evenodd" d="M35.0892 6.6167V7.95036H36.4172V6.6167H35.0892Z" fill="#8D93A1"/>
        <path fill-rule="evenodd" clip-rule="evenodd" d="M70.1835 19.8354V21.1644H71.5068V19.8354H70.1835Z" fill="#8D93A1"/>
        <path fill-rule="evenodd" clip-rule="evenodd" d="M52.6388 19.8354V21.1644H53.962V19.8354H52.6388Z" fill="#8D93A1"/>
        <path fill-rule="evenodd" clip-rule="evenodd" d="M17.5447 19.8354V21.1644H18.8727V19.8354H17.5447Z" fill="#8D93A1"/>
        <path fill-rule="evenodd" clip-rule="evenodd" d="M43.8641 19.8354V21.1644H45.1874V19.8354H43.8641Z" fill="#8D93A1"/>
        <path fill-rule="evenodd" clip-rule="evenodd" d="M43.8641 15.4293V16.7582H45.1874V15.4293H43.8641Z" fill="#8D93A1"/>
        <path fill-rule="evenodd" clip-rule="evenodd" d="M61.4087 19.8354V21.1644H62.7367V19.8354H61.4087Z" fill="#8D93A1"/>
        <path fill-rule="evenodd" clip-rule="evenodd" d="M26.3194 19.8354V21.1644H27.6426V19.8354H26.3194Z" fill="#8D93A1"/>
        <path fill-rule="evenodd" clip-rule="evenodd" d="M30.7066 13.2238V14.5574H32.0299V13.2238H30.7066Z" fill="#8D93A1"/>
        <path fill-rule="evenodd" clip-rule="evenodd" d="M67.9921 13.2238V14.5574H69.3154V13.2238H67.9921Z" fill="#8D93A1"/>
        <path fill-rule="evenodd" clip-rule="evenodd" d="M67.9921 6.6167V7.95036H69.3154V6.6167H67.9921Z" fill="#8D93A1"/>
        <path fill-rule="evenodd" clip-rule="evenodd" d="M50.4427 37.4557V38.7847H51.7707V37.4557H50.4427Z" fill="#8D93A1"/>
        <path fill-rule="evenodd" clip-rule="evenodd" d="M41.6727 37.4557V38.7847H42.9959V37.4557H41.6727Z" fill="#8D93A1"/>
        <path fill-rule="evenodd" clip-rule="evenodd" d="M59.2175 37.4557V38.7847H60.5407V37.4557H59.2175Z" fill="#8D93A1"/>
        <path fill-rule="evenodd" clip-rule="evenodd" d="M59.2175 13.2238V14.5574H60.5407V13.2238H59.2175Z" fill="#8D93A1"/>
        <path fill-rule="evenodd" clip-rule="evenodd" d="M24.1234 13.2238V14.5574H25.4513V13.2238H24.1234Z" fill="#8D93A1"/>
        <path fill-rule="evenodd" clip-rule="evenodd" d="M37.2853 11.0229V12.3519H38.6085V11.0229H37.2853Z" fill="#8D93A1"/>
        <path fill-rule="evenodd" clip-rule="evenodd" d="M37.2853 37.4557V38.7847H38.6085V37.4557H37.2853Z" fill="#8D93A1"/>
        <path fill-rule="evenodd" clip-rule="evenodd" d="M72.3748 13.2238V14.5574H73.7027V13.2238H72.3748Z" fill="#8D93A1"/>
        <path fill-rule="evenodd" clip-rule="evenodd" d="M72.3748 6.6167V7.95036H73.7027V6.6167H72.3748Z" fill="#8D93A1"/>
        <path fill-rule="evenodd" clip-rule="evenodd" d="M76.7622 6.6167V7.95036H78.0902V6.6167H76.7622Z" fill="#8D93A1"/>
        <path fill-rule="evenodd" clip-rule="evenodd" d="M76.7622 4.41589V5.74484H78.0902V4.41589H76.7622Z" fill="#8D93A1"/>
        <path fill-rule="evenodd" clip-rule="evenodd" d="M54.83 37.4557V38.7847H56.1532V37.4557H54.83Z" fill="#8D93A1"/>
        <path fill-rule="evenodd" clip-rule="evenodd" d="M54.83 13.2238V14.5574H56.1532V13.2238H54.83Z" fill="#8D93A1"/>
        <path fill-rule="evenodd" clip-rule="evenodd" d="M46.0554 37.4557V38.7847H47.3833V37.4557H46.0554Z" fill="#8D93A1"/>
        <path fill-rule="evenodd" clip-rule="evenodd" d="M46.0554 13.2238V14.5574H47.3833V13.2238H46.0554Z" fill="#8D93A1"/>
        <path fill-rule="evenodd" clip-rule="evenodd" d="M48.2514 13.2238V14.5574H49.5746V13.2238H48.2514Z" fill="#8D93A1"/>
        <path fill-rule="evenodd" clip-rule="evenodd" d="M46.0554 11.0229V12.3519H47.3833V11.0229H46.0554Z" fill="#8D93A1"/>
        <path fill-rule="evenodd" clip-rule="evenodd" d="M63.6046 13.2238V14.5574H64.9279V13.2238H63.6046Z" fill="#8D93A1"/>
        <path fill-rule="evenodd" clip-rule="evenodd" d="M32.8981 19.8354V21.1644H34.2214V19.8354H32.8981Z" fill="#8D93A1"/>
        <path fill-rule="evenodd" clip-rule="evenodd" d="M67.9921 19.8354V21.1644H69.3154V19.8354H67.9921Z" fill="#8D93A1"/>
        <path fill-rule="evenodd" clip-rule="evenodd" d="M50.4427 19.8354V21.1644H51.7707V19.8354H50.4427Z" fill="#8D93A1"/>
        <path fill-rule="evenodd" clip-rule="evenodd" d="M15.3533 19.8354V21.1644H16.6765V19.8354H15.3533Z" fill="#8D93A1"/>
        <path fill-rule="evenodd" clip-rule="evenodd" d="M41.6727 19.8354V21.1644H42.9959V19.8354H41.6727Z" fill="#8D93A1"/>
        <path fill-rule="evenodd" clip-rule="evenodd" d="M59.2175 19.8354V21.1644H60.5407V19.8354H59.2175Z" fill="#8D93A1"/>
        <path fill-rule="evenodd" clip-rule="evenodd" d="M24.1234 19.8354V21.1644H25.4513V19.8354H24.1234Z" fill="#8D93A1"/>
        <path fill-rule="evenodd" clip-rule="evenodd" d="M37.2853 19.8354V21.1644H38.6085V19.8354H37.2853Z" fill="#8D93A1"/>
        <path fill-rule="evenodd" clip-rule="evenodd" d="M37.2853 6.6167V7.95036H38.6085V6.6167H37.2853Z" fill="#8D93A1"/>
        <path fill-rule="evenodd" clip-rule="evenodd" d="M54.83 19.8354V21.1644H56.1532V19.8354H54.83Z" fill="#8D93A1"/>
        <path fill-rule="evenodd" clip-rule="evenodd" d="M19.7405 19.8354V21.1644H21.0638V19.8354H19.7405Z" fill="#8D93A1"/>
        <path fill-rule="evenodd" clip-rule="evenodd" d="M46.0554 19.8354V21.1644H47.3833V19.8354H46.0554Z" fill="#8D93A1"/>
        <path fill-rule="evenodd" clip-rule="evenodd" d="M63.6046 19.8354V21.1644H64.9279V19.8354H63.6046Z" fill="#8D93A1"/>
        <path fill-rule="evenodd" clip-rule="evenodd" d="M28.5109 19.8354V21.1644H29.8387V19.8354H28.5109Z" fill="#8D93A1"/>
        <path fill-rule="evenodd" clip-rule="evenodd" d="M30.7066 28.6432V29.9768H32.0299V28.6432H30.7066Z" fill="#8D93A1"/>
        <path fill-rule="evenodd" clip-rule="evenodd" d="M65.7961 28.6432V29.9768H67.1193V28.6432H65.7961Z" fill="#8D93A1"/>
        <path fill-rule="evenodd" clip-rule="evenodd" d="M48.2514 28.6432V29.9768H49.5746V28.6432H48.2514Z" fill="#8D93A1"/>
        <path fill-rule="evenodd" clip-rule="evenodd" d="M13.1575 28.6432V29.9768H14.4854V28.6432H13.1575Z" fill="#8D93A1"/>
        <path fill-rule="evenodd" clip-rule="evenodd" d="M39.4767 28.6432V29.9768H40.8047V28.6432H39.4767Z" fill="#8D93A1"/>
        <path fill-rule="evenodd" clip-rule="evenodd" d="M74.5708 28.6432V29.9768H75.894V28.6432H74.5708Z" fill="#8D93A1"/>
        <path fill-rule="evenodd" clip-rule="evenodd" d="M74.5708 26.4425V27.7714H75.894V26.4425H74.5708Z" fill="#8D93A1"/>
        <path fill-rule="evenodd" clip-rule="evenodd" d="M57.0215 28.6432V29.9768H58.3494V28.6432H57.0215Z" fill="#8D93A1"/>
        <path fill-rule="evenodd" clip-rule="evenodd" d="M21.932 28.6432V29.9768H23.2552V28.6432H21.932Z" fill="#8D93A1"/>
        <path fill-rule="evenodd" clip-rule="evenodd" d="M35.0892 28.6432V29.9768H36.4172V28.6432H35.0892Z" fill="#8D93A1"/>
        <path fill-rule="evenodd" clip-rule="evenodd" d="M52.6388 28.6432V29.9768H53.962V28.6432H52.6388Z" fill="#8D93A1"/>
        <path fill-rule="evenodd" clip-rule="evenodd" d="M17.5447 28.6432V29.9768H18.8727V28.6432H17.5447Z" fill="#8D93A1"/>
        <path fill-rule="evenodd" clip-rule="evenodd" d="M17.5447 30.8488V32.1778H18.8727V30.8488H17.5447Z" fill="#8D93A1"/>
        <path fill-rule="evenodd" clip-rule="evenodd" d="M43.8641 28.6432V29.9768H45.1874V28.6432H43.8641Z" fill="#8D93A1"/>
        <path fill-rule="evenodd" clip-rule="evenodd" d="M61.4087 28.6432V29.9768H62.7367V28.6432H61.4087Z" fill="#8D93A1"/>
        <path fill-rule="evenodd" clip-rule="evenodd" d="M26.3194 28.6432V29.9768H27.6426V28.6432H26.3194Z" fill="#8D93A1"/>
        <path fill-rule="evenodd" clip-rule="evenodd" d="M32.8981 28.6432V29.9768H34.2214V28.6432H32.8981Z" fill="#8D93A1"/>
        <path fill-rule="evenodd" clip-rule="evenodd" d="M67.9921 28.6432V29.9768H69.3154V28.6432H67.9921Z" fill="#8D93A1"/>
        <path fill-rule="evenodd" clip-rule="evenodd" d="M50.4427 28.6432V29.9768H51.7707V28.6432H50.4427Z" fill="#8D93A1"/>
        <path fill-rule="evenodd" clip-rule="evenodd" d="M15.3533 28.6432V29.9768H16.6765V28.6432H15.3533Z" fill="#8D93A1"/>
        <path fill-rule="evenodd" clip-rule="evenodd" d="M41.6727 28.6432V29.9768H42.9959V28.6432H41.6727Z" fill="#8D93A1"/>
        <path fill-rule="evenodd" clip-rule="evenodd" d="M76.7622 28.6432V29.9768H78.0855V28.6432H76.7622Z" fill="#8D93A1"/>
        <path fill-rule="evenodd" clip-rule="evenodd" d="M59.2175 28.6432V29.9768H60.5407V28.6432H59.2175Z" fill="#8D93A1"/>
        <path fill-rule="evenodd" clip-rule="evenodd" d="M24.1234 28.6432V29.9768H25.4513V28.6432H24.1234Z" fill="#8D93A1"/>
        <path fill-rule="evenodd" clip-rule="evenodd" d="M37.2853 28.6432V29.9768H38.6085V28.6432H37.2853Z" fill="#8D93A1"/>
        <path fill-rule="evenodd" clip-rule="evenodd" d="M72.3748 28.6432V29.9768H73.7027V28.6432H72.3748Z" fill="#8D93A1"/>
        <path fill-rule="evenodd" clip-rule="evenodd" d="M70.1835 28.6432V29.9768H71.5068V28.6432H70.1835Z" fill="#8D93A1"/>
        <path fill-rule="evenodd" clip-rule="evenodd" d="M54.83 28.6432V29.9768H56.1532V28.6432H54.83Z" fill="#8D93A1"/>
        <path fill-rule="evenodd" clip-rule="evenodd" d="M19.7405 28.6432V29.9768H21.0638V28.6432H19.7405Z" fill="#8D93A1"/>
        <path fill-rule="evenodd" clip-rule="evenodd" d="M19.7405 30.8488V32.1778H21.0638V30.8488H19.7405Z" fill="#8D93A1"/>
        <path fill-rule="evenodd" clip-rule="evenodd" d="M46.0554 28.6432V29.9768H47.3833V28.6432H46.0554Z" fill="#8D93A1"/>
        <path fill-rule="evenodd" clip-rule="evenodd" d="M10.9661 28.6432V29.9768H12.2893V28.6432H10.9661Z" fill="#8D93A1"/>
        <path fill-rule="evenodd" clip-rule="evenodd" d="M63.6046 28.6432V29.9768H64.9279V28.6432H63.6046Z" fill="#8D93A1"/>
        <path fill-rule="evenodd" clip-rule="evenodd" d="M28.5109 28.6432V29.9768H29.8387V28.6432H28.5109Z" fill="#8D93A1"/>
        <path fill-rule="evenodd" clip-rule="evenodd" d="M30.7066 33.0494V34.3784H32.0299V33.0494H30.7066Z" fill="#8D93A1"/>
        <path fill-rule="evenodd" clip-rule="evenodd" d="M65.7961 8.82214V10.1511H67.1193V8.82214H65.7961Z" fill="#8D93A1"/>
        <path fill-rule="evenodd" clip-rule="evenodd" d="M48.2514 33.0494V34.3784H49.5746V33.0494H48.2514Z" fill="#8D93A1"/>
        <path fill-rule="evenodd" clip-rule="evenodd" d="M48.2514 39.6565V40.9902H49.5746V39.6565H48.2514Z" fill="#8D93A1"/>
        <path fill-rule="evenodd" clip-rule="evenodd" d="M13.1575 33.0494V34.3784H14.4854V33.0494H13.1575Z" fill="#8D93A1"/>
        <path fill-rule="evenodd" clip-rule="evenodd" d="M15.3533 33.0494V34.3784H16.6765V33.0494H15.3533Z" fill="#8D93A1"/>
        <path fill-rule="evenodd" clip-rule="evenodd" d="M39.4767 33.0494V34.3784H40.8047V33.0494H39.4767Z" fill="#8D93A1"/>
        <path fill-rule="evenodd" clip-rule="evenodd" d="M39.4767 39.6565V40.9902H40.8047V39.6565H39.4767Z" fill="#8D93A1"/>
        <path fill-rule="evenodd" clip-rule="evenodd" d="M74.5708 33.0494V34.3784H75.894V33.0494H74.5708Z" fill="#8D93A1"/>
        <path fill-rule="evenodd" clip-rule="evenodd" d="M57.0215 33.0494V34.3784H58.3494V33.0494H57.0215Z" fill="#8D93A1"/>
        <path fill-rule="evenodd" clip-rule="evenodd" d="M57.0215 39.6565V40.9902H58.3494V39.6565H57.0215Z" fill="#8D93A1"/>
        <path fill-rule="evenodd" clip-rule="evenodd" d="M21.932 33.0494V34.3784H23.2552V33.0494H21.932Z" fill="#8D93A1"/>
        <path fill-rule="evenodd" clip-rule="evenodd" d="M35.0892 33.0494V34.3784H36.4172V33.0494H35.0892Z" fill="#8D93A1"/>
        <path fill-rule="evenodd" clip-rule="evenodd" d="M70.1835 33.0494V34.3784H71.5068V33.0494H70.1835Z" fill="#8D93A1"/>
        <path fill-rule="evenodd" clip-rule="evenodd" d="M70.1835 8.82214V10.1511H71.5068V8.82214H70.1835Z" fill="#8D93A1"/>
        <path fill-rule="evenodd" clip-rule="evenodd" d="M74.5708 8.82214V10.1511H75.894V8.82214H74.5708Z" fill="#8D93A1"/>
        <path fill-rule="evenodd" clip-rule="evenodd" d="M70.1835 2.21045V3.54411H71.5068V2.21045H70.1835Z" fill="#8D93A1"/>
        <path fill-rule="evenodd" clip-rule="evenodd" d="M74.5708 2.21045V3.54411H75.894V2.21045H74.5708Z" fill="#8D93A1"/>
        <path fill-rule="evenodd" clip-rule="evenodd" d="M74.5708 0.00964355V1.33859H75.894V0.00964355H74.5708Z" fill="#8D93A1"/>
        <path fill-rule="evenodd" clip-rule="evenodd" d="M52.6388 33.0494V34.3784H53.962V33.0494H52.6388Z" fill="#8D93A1"/>
        <path fill-rule="evenodd" clip-rule="evenodd" d="M43.8641 33.0494V34.3784H45.1874V33.0494H43.8641Z" fill="#8D93A1"/>
        <path fill-rule="evenodd" clip-rule="evenodd" d="M43.8641 39.6565V40.9902H45.1874V39.6565H43.8641Z" fill="#8D93A1"/>
        <path fill-rule="evenodd" clip-rule="evenodd" d="M8.77472 33.0494V34.3784H10.0979V33.0494H8.77472Z" fill="#8D93A1"/>
        <path fill-rule="evenodd" clip-rule="evenodd" d="M6.57867 33.0494V34.3784H7.9066V33.0494H6.57867Z" fill="#8D93A1"/>
        <path fill-rule="evenodd" clip-rule="evenodd" d="M61.4087 33.0494V34.3784H62.7367V33.0494H61.4087Z" fill="#8D93A1"/>
        <path fill-rule="evenodd" clip-rule="evenodd" d="M26.3194 33.0494V34.3784H27.6426V33.0494H26.3194Z" fill="#8D93A1"/>
        <path fill-rule="evenodd" clip-rule="evenodd" d="M65.7961 15.4293V16.7582H67.1193V15.4293H65.7961Z" fill="#8D93A1"/>
        <path fill-rule="evenodd" clip-rule="evenodd" d="M48.2514 15.4293V16.7582H49.5746V15.4293H48.2514Z" fill="#8D93A1"/>
        <path fill-rule="evenodd" clip-rule="evenodd" d="M74.5708 15.4293V16.7582H75.894V15.4293H74.5708Z" fill="#8D93A1"/>
        <path fill-rule="evenodd" clip-rule="evenodd" d="M76.7622 15.4293V16.7582H78.0855V15.4293H76.7622Z" fill="#8D93A1"/>
        <path fill-rule="evenodd" clip-rule="evenodd" d="M78.9583 15.4293V16.7582H80.2815V15.4293H78.9583Z" fill="#8D93A1"/>
        <path fill-rule="evenodd" clip-rule="evenodd" d="M76.7622 17.63V18.9637H78.0855V17.63H76.7622Z" fill="#8D93A1"/>
        <path fill-rule="evenodd" clip-rule="evenodd" d="M78.9583 17.63V18.9637H80.2815V17.63H78.9583Z" fill="#8D93A1"/>
        <path fill-rule="evenodd" clip-rule="evenodd" d="M21.932 15.4293V16.7582H23.2552V15.4293H21.932Z" fill="#8D93A1"/>
        <path fill-rule="evenodd" clip-rule="evenodd" d="M70.1835 15.4293V16.7582H71.5068V15.4293H70.1835Z" fill="#8D93A1"/>
        <path fill-rule="evenodd" clip-rule="evenodd" d="M72.3748 15.4293V16.7582H73.7027V15.4293H72.3748Z" fill="#8D93A1"/>
        <path fill-rule="evenodd" clip-rule="evenodd" d="M52.6388 15.4293V16.7582H53.962V15.4293H52.6388Z" fill="#8D93A1"/>
        <path fill-rule="evenodd" clip-rule="evenodd" d="M50.4427 15.4293V16.7582H51.7707V15.4293H50.4427Z" fill="#8D93A1"/>
        <path fill-rule="evenodd" clip-rule="evenodd" d="M17.5447 15.4293V16.7582H18.8727V15.4293H17.5447Z" fill="#8D93A1"/>
        <path fill-rule="evenodd" clip-rule="evenodd" d="M61.4087 15.4293V16.7582H62.7367V15.4293H61.4087Z" fill="#8D93A1"/>
        <path fill-rule="evenodd" clip-rule="evenodd" d="M26.3194 15.4293V16.7582H27.6426V15.4293H26.3194Z" fill="#8D93A1"/>
        <path fill-rule="evenodd" clip-rule="evenodd" d="M32.8981 33.0494V34.3784H34.2214V33.0494H32.8981Z" fill="#8D93A1"/>
        <path fill-rule="evenodd" clip-rule="evenodd" d="M67.9921 33.0494V34.3784H69.3154V33.0494H67.9921Z" fill="#8D93A1"/>
        <path fill-rule="evenodd" clip-rule="evenodd" d="M67.9921 8.82214V10.1511H69.3154V8.82214H67.9921Z" fill="#8D93A1"/>
        <path fill-rule="evenodd" clip-rule="evenodd" d="M67.9921 2.21045V3.54411H69.3154V2.21045H67.9921Z" fill="#8D93A1"/>
        <path fill-rule="evenodd" clip-rule="evenodd" d="M72.3748 2.21045V3.54411H73.7027V2.21045H72.3748Z" fill="#8D93A1"/>
        <path fill-rule="evenodd" clip-rule="evenodd" d="M72.3748 0.00964355V1.33859H73.7027V0.00964355H72.3748Z" fill="#8D93A1"/>
        <path fill-rule="evenodd" clip-rule="evenodd" d="M50.4427 33.0494V34.3784H51.7707V33.0494H50.4427Z" fill="#8D93A1"/>
        <path fill-rule="evenodd" clip-rule="evenodd" d="M41.6727 33.0494V34.3784H42.9959V33.0494H41.6727Z" fill="#8D93A1"/>
        <path fill-rule="evenodd" clip-rule="evenodd" d="M41.6727 39.6565V40.9902H42.9959V39.6565H41.6727Z" fill="#8D93A1"/>
        <path fill-rule="evenodd" clip-rule="evenodd" d="M59.2175 33.0494V34.3784H60.5407V33.0494H59.2175Z" fill="#8D93A1"/>
        <path fill-rule="evenodd" clip-rule="evenodd" d="M24.1234 33.0494V34.3784H25.4513V33.0494H24.1234Z" fill="#8D93A1"/>
        <path fill-rule="evenodd" clip-rule="evenodd" d="M37.2853 33.0494V34.3784H38.6085V33.0494H37.2853Z" fill="#8D93A1"/>
        <path fill-rule="evenodd" clip-rule="evenodd" d="M72.3748 33.0494V34.3784H73.7027V33.0494H72.3748Z" fill="#8D93A1"/>
        <path fill-rule="evenodd" clip-rule="evenodd" d="M72.3748 8.82214V10.1511H73.7027V8.82214H72.3748Z" fill="#8D93A1"/>
        <path fill-rule="evenodd" clip-rule="evenodd" d="M76.7622 8.82214V10.1511H78.0902V8.82214H76.7622Z" fill="#8D93A1"/>
        <path fill-rule="evenodd" clip-rule="evenodd" d="M54.83 33.0494V34.3784H56.1532V33.0494H54.83Z" fill="#8D93A1"/>
        <path fill-rule="evenodd" clip-rule="evenodd" d="M46.0554 33.0494V34.3784H47.3833V33.0494H46.0554Z" fill="#8D93A1"/>
        <path fill-rule="evenodd" clip-rule="evenodd" d="M46.0554 39.6565V40.9902H47.3833V39.6565H46.0554Z" fill="#8D93A1"/>
        <path fill-rule="evenodd" clip-rule="evenodd" d="M10.9661 33.0494V34.3784H12.2893V33.0494H10.9661Z" fill="#8D93A1"/>
        <path fill-rule="evenodd" clip-rule="evenodd" d="M10.9661 39.6565V40.9902H12.2893V39.6565H10.9661Z" fill="#8D93A1"/>
        <path fill-rule="evenodd" clip-rule="evenodd" d="M28.5109 33.0494V34.3784H29.8387V33.0494H28.5109Z" fill="#8D93A1"/>
        <path fill-rule="evenodd" clip-rule="evenodd" d="M30.7066 15.4293V16.7582H32.0299V15.4293H30.7066Z" fill="#8D93A1"/>
        <path fill-rule="evenodd" clip-rule="evenodd" d="M67.9921 15.4293V16.7582H69.3154V15.4293H67.9921Z" fill="#8D93A1"/>
        <path fill-rule="evenodd" clip-rule="evenodd" d="M81.1494 17.63V18.9637H82.4726V17.63H81.1494Z" fill="#8D93A1"/>
        <path fill-rule="evenodd" clip-rule="evenodd" d="M59.2175 15.4293V16.7582H60.5407V15.4293H59.2175Z" fill="#8D93A1"/>
        <path fill-rule="evenodd" clip-rule="evenodd" d="M24.1234 15.4293V16.7582H25.4513V15.4293H24.1234Z" fill="#8D93A1"/>
        <path fill-rule="evenodd" clip-rule="evenodd" d="M19.7405 15.4293V16.7582H21.0638V15.4293H19.7405Z" fill="#8D93A1"/>
        <path fill-rule="evenodd" clip-rule="evenodd" d="M46.0554 15.4293V16.7582H47.3833V15.4293H46.0554Z" fill="#8D93A1"/>
        <path fill-rule="evenodd" clip-rule="evenodd" d="M63.6046 15.4293V16.7582H64.9279V15.4293H63.6046Z" fill="#8D93A1"/>
        <path fill-rule="evenodd" clip-rule="evenodd" d="M30.7066 24.2369V25.5706H32.0299V24.2369H30.7066Z" fill="#8D93A1"/>
        <path fill-rule="evenodd" clip-rule="evenodd" d="M65.7961 24.2369V25.5706H67.1193V24.2369H65.7961Z" fill="#8D93A1"/>
        <path fill-rule="evenodd" clip-rule="evenodd" d="M48.2514 24.2369V25.5706H49.5746V24.2369H48.2514Z" fill="#8D93A1"/>
        <path fill-rule="evenodd" clip-rule="evenodd" d="M13.1575 24.2369V25.5706H14.4854V24.2369H13.1575Z" fill="#8D93A1"/>
        <path fill-rule="evenodd" clip-rule="evenodd" d="M39.4767 24.2369V25.5706H40.8047V24.2369H39.4767Z" fill="#8D93A1"/>
        <path fill-rule="evenodd" clip-rule="evenodd" d="M57.0215 24.2369V25.5706H58.3494V24.2369H57.0215Z" fill="#8D93A1"/>
        <path fill-rule="evenodd" clip-rule="evenodd" d="M21.932 24.2369V25.5706H23.2552V24.2369H21.932Z" fill="#8D93A1"/>
        <path fill-rule="evenodd" clip-rule="evenodd" d="M35.0892 24.2369V25.5706H36.4172V24.2369H35.0892Z" fill="#8D93A1"/>
        <path fill-rule="evenodd" clip-rule="evenodd" d="M52.6388 24.2369V25.5706H53.962V24.2369H52.6388Z" fill="#8D93A1"/>
        <path fill-rule="evenodd" clip-rule="evenodd" d="M17.5447 24.2369V25.5706H18.8727V24.2369H17.5447Z" fill="#8D93A1"/>
        <path fill-rule="evenodd" clip-rule="evenodd" d="M43.8641 24.2369V25.5706H45.1874V24.2369H43.8641Z" fill="#8D93A1"/>
        <path fill-rule="evenodd" clip-rule="evenodd" d="M61.4087 24.2369V25.5706H62.7367V24.2369H61.4087Z" fill="#8D93A1"/>
        <path fill-rule="evenodd" clip-rule="evenodd" d="M10.9661 24.2369V25.5706H12.2893V24.2369H10.9661Z" fill="#8D93A1"/>
        <path fill-rule="evenodd" clip-rule="evenodd" d="M26.3194 24.2369V25.5706H27.6426V24.2369H26.3194Z" fill="#8D93A1"/>
        <path fill-rule="evenodd" clip-rule="evenodd" d="M32.8981 24.2369V25.5706H34.2214V24.2369H32.8981Z" fill="#8D93A1"/>
        <path fill-rule="evenodd" clip-rule="evenodd" d="M67.9921 24.2369V25.5706H69.3154V24.2369H67.9921Z" fill="#8D93A1"/>
        <path fill-rule="evenodd" clip-rule="evenodd" d="M50.4427 24.2369V25.5706H51.7707V24.2369H50.4427Z" fill="#8D93A1"/>
        <path fill-rule="evenodd" clip-rule="evenodd" d="M15.3533 24.2369V25.5706H16.6765V24.2369H15.3533Z" fill="#8D93A1"/>
        <path fill-rule="evenodd" clip-rule="evenodd" d="M41.6727 24.2369V25.5706H42.9959V24.2369H41.6727Z" fill="#8D93A1"/>
        <path fill-rule="evenodd" clip-rule="evenodd" d="M59.2175 24.2369V25.5706H60.5407V24.2369H59.2175Z" fill="#8D93A1"/>
        <path fill-rule="evenodd" clip-rule="evenodd" d="M24.1234 24.2369V25.5706H25.4513V24.2369H24.1234Z" fill="#8D93A1"/>
        <path fill-rule="evenodd" clip-rule="evenodd" d="M37.2853 24.2369V25.5706H38.6085V24.2369H37.2853Z" fill="#8D93A1"/>
        <path fill-rule="evenodd" clip-rule="evenodd" d="M54.83 24.2369V25.5706H56.1532V24.2369H54.83Z" fill="#8D93A1"/>
        <path fill-rule="evenodd" clip-rule="evenodd" d="M19.7405 24.2369V25.5706H21.0638V24.2369H19.7405Z" fill="#8D93A1"/>
        <path fill-rule="evenodd" clip-rule="evenodd" d="M2.19141 33.0494V34.3784H3.51934V33.0494H2.19141Z" fill="#8D93A1"/>
        <path fill-rule="evenodd" clip-rule="evenodd" d="M46.0554 24.2369V25.5706H47.3833V24.2369H46.0554Z" fill="#8D93A1"/>
        <path fill-rule="evenodd" clip-rule="evenodd" d="M63.6046 24.2369V25.5706H64.9279V24.2369H63.6046Z" fill="#8D93A1"/>
        <path fill-rule="evenodd" clip-rule="evenodd" d="M28.5109 24.2369V25.5706H29.8387V24.2369H28.5109Z" fill="#8D93A1"/>
        <path fill-rule="evenodd" clip-rule="evenodd" d="M65.7961 11.0229V12.3519H67.1193V11.0229H65.7961Z" fill="#8D93A1"/>
        <path fill-rule="evenodd" clip-rule="evenodd" d="M65.7961 4.41589V5.74484H67.1193V4.41589H65.7961Z" fill="#8D93A1"/>
        <path fill-rule="evenodd" clip-rule="evenodd" d="M48.2514 35.255V36.5839H49.5746V35.255H48.2514Z" fill="#8D93A1"/>
        <path fill-rule="evenodd" clip-rule="evenodd" d="M39.4767 35.255V36.5839H40.8047V35.255H39.4767Z" fill="#8D93A1"/>
        <path fill-rule="evenodd" clip-rule="evenodd" d="M74.5708 35.255V36.5839H75.894V35.255H74.5708Z" fill="#8D93A1"/>
        <path fill-rule="evenodd" clip-rule="evenodd" d="M74.5708 11.0229V12.3519H75.894V11.0229H74.5708Z" fill="#8D93A1"/>
        <path fill-rule="evenodd" clip-rule="evenodd" d="M57.0215 35.255V36.5839H58.3494V35.255H57.0215Z" fill="#8D93A1"/>
        <path fill-rule="evenodd" clip-rule="evenodd" d="M57.0215 11.0229V12.3519H58.3494V11.0229H57.0215Z" fill="#8D93A1"/>
        <path fill-rule="evenodd" clip-rule="evenodd" d="M57.0215 8.82214V10.1511H58.3494V8.82214H57.0215Z" fill="#8D93A1"/>
        <path fill-rule="evenodd" clip-rule="evenodd" d="M35.0892 35.255V36.5839H36.4172V35.255H35.0892Z" fill="#8D93A1"/>
        <path fill-rule="evenodd" clip-rule="evenodd" d="M70.1835 11.0229V12.3519H71.5068V11.0229H70.1835Z" fill="#8D93A1"/>
        <path fill-rule="evenodd" clip-rule="evenodd" d="M70.1835 4.41589V5.74484H71.5068V4.41589H70.1835Z" fill="#8D93A1"/>
        <path fill-rule="evenodd" clip-rule="evenodd" d="M74.5708 4.41589V5.74484H75.894V4.41589H74.5708Z" fill="#8D93A1"/>
        <path fill-rule="evenodd" clip-rule="evenodd" d="M52.6388 35.255V36.5839H53.962V35.255H52.6388Z" fill="#8D93A1"/>
        <path fill-rule="evenodd" clip-rule="evenodd" d="M43.8641 35.255V36.5839H45.1874V35.255H43.8641Z" fill="#8D93A1"/>
        <path fill-rule="evenodd" clip-rule="evenodd" d="M8.77472 35.255V36.5839H10.0979V35.255H8.77472Z" fill="#8D93A1"/>
        <path fill-rule="evenodd" clip-rule="evenodd" d="M61.4087 35.255V36.5839H62.7367V35.255H61.4087Z" fill="#8D93A1"/>
        <path fill-rule="evenodd" clip-rule="evenodd" d="M30.7066 17.63V18.9637H32.0299V17.63H30.7066Z" fill="#8D93A1"/>
        <path fill-rule="evenodd" clip-rule="evenodd" d="M65.7961 17.63V18.9637H67.1193V17.63H65.7961Z" fill="#8D93A1"/>
        <path fill-rule="evenodd" clip-rule="evenodd" d="M48.2514 17.63V18.9637H49.5746V17.63H48.2514Z" fill="#8D93A1"/>
        <path fill-rule="evenodd" clip-rule="evenodd" d="M39.4767 17.63V18.9637H40.8047V17.63H39.4767Z" fill="#8D93A1"/>
        <path fill-rule="evenodd" clip-rule="evenodd" d="M74.5708 17.63V18.9637H75.894V17.63H74.5708Z" fill="#8D93A1"/>
        <path fill-rule="evenodd" clip-rule="evenodd" d="M57.0215 17.63V18.9637H58.3494V17.63H57.0215Z" fill="#8D93A1"/>
        <path fill-rule="evenodd" clip-rule="evenodd" d="M57.0215 15.4293V16.7582H58.3494V15.4293H57.0215Z" fill="#8D93A1"/>
        <path fill-rule="evenodd" clip-rule="evenodd" d="M21.932 17.63V18.9637H23.2552V17.63H21.932Z" fill="#8D93A1"/>
        <path fill-rule="evenodd" clip-rule="evenodd" d="M35.0892 17.63V18.9637H36.4172V17.63H35.0892Z" fill="#8D93A1"/>
        <path fill-rule="evenodd" clip-rule="evenodd" d="M70.1835 17.63V18.9637H71.5068V17.63H70.1835Z" fill="#8D93A1"/>
        <path fill-rule="evenodd" clip-rule="evenodd" d="M72.3748 17.63V18.9637H73.7027V17.63H72.3748Z" fill="#8D93A1"/>
        <path fill-rule="evenodd" clip-rule="evenodd" d="M52.6388 17.63V18.9637H53.962V17.63H52.6388Z" fill="#8D93A1"/>
        <path fill-rule="evenodd" clip-rule="evenodd" d="M17.5447 17.63V18.9637H18.8727V17.63H17.5447Z" fill="#8D93A1"/>
        <path fill-rule="evenodd" clip-rule="evenodd" d="M43.8641 17.63V18.9637H45.1874V17.63H43.8641Z" fill="#8D93A1"/>
        <path fill-rule="evenodd" clip-rule="evenodd" d="M43.8641 13.2238V14.5574H45.1874V13.2238H43.8641Z" fill="#8D93A1"/>
        <path fill-rule="evenodd" clip-rule="evenodd" d="M43.8641 8.82214V10.1511H45.1874V8.82214H43.8641Z" fill="#8D93A1"/>
        <path fill-rule="evenodd" clip-rule="evenodd" d="M61.4087 17.63V18.9637H62.7367V17.63H61.4087Z" fill="#8D93A1"/>
        <path fill-rule="evenodd" clip-rule="evenodd" d="M26.3194 17.63V18.9637H27.6426V17.63H26.3194Z" fill="#8D93A1"/>
        <path fill-rule="evenodd" clip-rule="evenodd" d="M32.8981 35.255V36.5839H34.2214V35.255H32.8981Z" fill="#8D93A1"/>
        <path fill-rule="evenodd" clip-rule="evenodd" d="M67.9921 11.0229V12.3519H69.3154V11.0229H67.9921Z" fill="#8D93A1"/>
        <path fill-rule="evenodd" clip-rule="evenodd" d="M67.9921 4.41589V5.74484H69.3154V4.41589H67.9921Z" fill="#8D93A1"/>
        <path fill-rule="evenodd" clip-rule="evenodd" d="M72.3748 4.41589V5.74484H73.7027V4.41589H72.3748Z" fill="#8D93A1"/>
        <path fill-rule="evenodd" clip-rule="evenodd" d="M50.4427 35.255V36.5839H51.7707V35.255H50.4427Z" fill="#8D93A1"/>
        <path fill-rule="evenodd" clip-rule="evenodd" d="M41.6727 35.255V36.5839H42.9959V35.255H41.6727Z" fill="#8D93A1"/>
        <path fill-rule="evenodd" clip-rule="evenodd" d="M59.2175 35.255V36.5839H60.5407V35.255H59.2175Z" fill="#8D93A1"/>
        <path fill-rule="evenodd" clip-rule="evenodd" d="M24.1234 35.255V36.5839H25.4513V35.255H24.1234Z" fill="#8D93A1"/>
        <path fill-rule="evenodd" clip-rule="evenodd" d="M37.2853 35.255V36.5839H38.6085V35.255H37.2853Z" fill="#8D93A1"/>
        <path fill-rule="evenodd" clip-rule="evenodd" d="M72.3748 35.255V36.5839H73.7027V35.255H72.3748Z" fill="#8D93A1"/>
        <path fill-rule="evenodd" clip-rule="evenodd" d="M72.3748 11.0229V12.3519H73.7027V11.0229H72.3748Z" fill="#8D93A1"/>
        <path fill-rule="evenodd" clip-rule="evenodd" d="M54.83 35.255V36.5839H56.1532V35.255H54.83Z" fill="#8D93A1"/>
        <path fill-rule="evenodd" clip-rule="evenodd" d="M46.0554 35.255V36.5839H47.3833V35.255H46.0554Z" fill="#8D93A1"/>
        <path fill-rule="evenodd" clip-rule="evenodd" d="M46.0554 8.82214V10.1511H47.3833V8.82214H46.0554Z" fill="#8D93A1"/>
        <path fill-rule="evenodd" clip-rule="evenodd" d="M10.9661 35.255V36.5839H12.2893V35.255H10.9661Z" fill="#8D93A1"/>
        <path fill-rule="evenodd" clip-rule="evenodd" d="M63.6046 11.0229V12.3519H64.9279V11.0229H63.6046Z" fill="#8D93A1"/>
        <path fill-rule="evenodd" clip-rule="evenodd" d="M32.8981 17.63V18.9637H34.2214V17.63H32.8981Z" fill="#8D93A1"/>
        <path fill-rule="evenodd" clip-rule="evenodd" d="M32.8981 13.2238V14.5574H34.2214V13.2238H32.8981Z" fill="#8D93A1"/>
        <path fill-rule="evenodd" clip-rule="evenodd" d="M67.9921 17.63V18.9637H69.3154V17.63H67.9921Z" fill="#8D93A1"/>
        <path fill-rule="evenodd" clip-rule="evenodd" d="M50.4427 17.63V18.9637H51.7707V17.63H50.4427Z" fill="#8D93A1"/>
        <path fill-rule="evenodd" clip-rule="evenodd" d="M50.4427 13.2238V14.5574H51.7707V13.2238H50.4427Z" fill="#8D93A1"/>
        <path fill-rule="evenodd" clip-rule="evenodd" d="M15.3533 17.63V18.9637H16.6765V17.63H15.3533Z" fill="#8D93A1"/>
        <path fill-rule="evenodd" clip-rule="evenodd" d="M41.6727 17.63V18.9637H42.9959V17.63H41.6727Z" fill="#8D93A1"/>
        <path fill-rule="evenodd" clip-rule="evenodd" d="M81.1494 19.8354V21.1644H82.4726V19.8354H81.1494Z" fill="#8D93A1"/>
        <path fill-rule="evenodd" clip-rule="evenodd" d="M59.2175 17.63V18.9637H60.5407V17.63H59.2175Z" fill="#8D93A1"/>
        <path fill-rule="evenodd" clip-rule="evenodd" d="M24.1234 17.63V18.9637H25.4513V17.63H24.1234Z" fill="#8D93A1"/>
        <path fill-rule="evenodd" clip-rule="evenodd" d="M8.77472 17.63V18.9637H10.0979V17.63H8.77472Z" fill="#8D93A1"/>
        <path fill-rule="evenodd" clip-rule="evenodd" d="M37.2853 17.63V18.9637H38.6085V17.63H37.2853Z" fill="#8D93A1"/>
        <path fill-rule="evenodd" clip-rule="evenodd" d="M54.83 17.63V18.9637H56.1532V17.63H54.83Z" fill="#8D93A1"/>
        <path fill-rule="evenodd" clip-rule="evenodd" d="M54.83 15.4293V16.7582H56.1532V15.4293H54.83Z" fill="#8D93A1"/>
        <path fill-rule="evenodd" clip-rule="evenodd" d="M19.7405 17.63V18.9637H21.0638V17.63H19.7405Z" fill="#8D93A1"/>
        <path fill-rule="evenodd" clip-rule="evenodd" d="M46.0554 17.63V18.9637H47.3833V17.63H46.0554Z" fill="#8D93A1"/>
        <path fill-rule="evenodd" clip-rule="evenodd" d="M63.6046 17.63V18.9637H64.9279V17.63H63.6046Z" fill="#8D93A1"/>
        <path fill-rule="evenodd" clip-rule="evenodd" d="M28.5109 17.63V18.9637H29.8387V17.63H28.5109Z" fill="#8D93A1"/>
        <path fill-rule="evenodd" clip-rule="evenodd" d="M13.1575 17.63V18.9637H14.4854V17.63H13.1575Z" fill="#8D93A1"/>
        <path fill-rule="evenodd" clip-rule="evenodd" d="M30.7066 26.4425V27.7714H32.0299V26.4425H30.7066Z" fill="#8D93A1"/>
        <path fill-rule="evenodd" clip-rule="evenodd" d="M65.7961 26.4425V27.7714H67.1193V26.4425H65.7961Z" fill="#8D93A1"/>
        <path fill-rule="evenodd" clip-rule="evenodd" d="M48.2514 26.4425V27.7714H49.5746V26.4425H48.2514Z" fill="#8D93A1"/>
        <path fill-rule="evenodd" clip-rule="evenodd" d="M13.1575 26.4425V27.7714H14.4854V26.4425H13.1575Z" fill="#8D93A1"/>
        <path fill-rule="evenodd" clip-rule="evenodd" d="M13.1575 35.255V36.5839H14.4854V35.255H13.1575Z" fill="#8D93A1"/>
        <path fill-rule="evenodd" clip-rule="evenodd" d="M39.4767 26.4425V27.7714H40.8047V26.4425H39.4767Z" fill="#8D93A1"/>
        <path fill-rule="evenodd" clip-rule="evenodd" d="M57.0215 26.4425V27.7714H58.3494V26.4425H57.0215Z" fill="#8D93A1"/>
        <path fill-rule="evenodd" clip-rule="evenodd" d="M21.932 26.4425V27.7714H23.2552V26.4425H21.932Z" fill="#8D93A1"/>
        <path fill-rule="evenodd" clip-rule="evenodd" d="M35.0892 26.4425V27.7714H36.4172V26.4425H35.0892Z" fill="#8D93A1"/>
        <path fill-rule="evenodd" clip-rule="evenodd" d="M52.6388 26.4425V27.7714H53.962V26.4425H52.6388Z" fill="#8D93A1"/>
        <path fill-rule="evenodd" clip-rule="evenodd" d="M17.5447 26.4425V27.7714H18.8727V26.4425H17.5447Z" fill="#8D93A1"/>
        <path fill-rule="evenodd" clip-rule="evenodd" d="M43.8641 26.4425V27.7714H45.1874V26.4425H43.8641Z" fill="#8D93A1"/>
        <path fill-rule="evenodd" clip-rule="evenodd" d="M61.4087 26.4425V27.7714H62.7367V26.4425H61.4087Z" fill="#8D93A1"/>
        <path fill-rule="evenodd" clip-rule="evenodd" d="M10.9661 26.4425V27.7714H12.2893V26.4425H10.9661Z" fill="#8D93A1"/>
        <path fill-rule="evenodd" clip-rule="evenodd" d="M26.3194 26.4425V27.7714H27.6426V26.4425H26.3194Z" fill="#8D93A1"/>
        <path fill-rule="evenodd" clip-rule="evenodd" d="M32.8981 26.4425V27.7714H34.2214V26.4425H32.8981Z" fill="#8D93A1"/>
        <path fill-rule="evenodd" clip-rule="evenodd" d="M67.9921 26.4425V27.7714H69.3154V26.4425H67.9921Z" fill="#8D93A1"/>
        <path fill-rule="evenodd" clip-rule="evenodd" d="M50.4427 26.4425V27.7714H51.7707V26.4425H50.4427Z" fill="#8D93A1"/>
        <path fill-rule="evenodd" clip-rule="evenodd" d="M15.3533 26.4425V27.7714H16.6765V26.4425H15.3533Z" fill="#8D93A1"/>
        <path fill-rule="evenodd" clip-rule="evenodd" d="M41.6727 26.4425V27.7714H42.9959V26.4425H41.6727Z" fill="#8D93A1"/>
        <path fill-rule="evenodd" clip-rule="evenodd" d="M59.2175 26.4425V27.7714H60.5407V26.4425H59.2175Z" fill="#8D93A1"/>
        <path fill-rule="evenodd" clip-rule="evenodd" d="M24.1234 26.4425V27.7714H25.4513V26.4425H24.1234Z" fill="#8D93A1"/>
        <path fill-rule="evenodd" clip-rule="evenodd" d="M37.2853 26.4425V27.7714H38.6085V26.4425H37.2853Z" fill="#8D93A1"/>
        <path fill-rule="evenodd" clip-rule="evenodd" d="M54.83 26.4425V27.7714H56.1532V26.4425H54.83Z" fill="#8D93A1"/>
        <path fill-rule="evenodd" clip-rule="evenodd" d="M19.7405 26.4425V27.7714H21.0638V26.4425H19.7405Z" fill="#8D93A1"/>
        <path fill-rule="evenodd" clip-rule="evenodd" d="M46.0554 26.4425V27.7714H47.3833V26.4425H46.0554Z" fill="#8D93A1"/>
        <path fill-rule="evenodd" clip-rule="evenodd" d="M63.6046 26.4425V27.7714H64.9279V26.4425H63.6046Z" fill="#8D93A1"/>
        <path fill-rule="evenodd" clip-rule="evenodd" d="M28.5109 26.4425V27.7714H29.8387V26.4425H28.5109Z" fill="#8D93A1"/>
        <path fill-rule="evenodd" clip-rule="evenodd" d="M30.7066 30.8488V32.1778H32.0299V30.8488H30.7066Z" fill="#8D93A1"/>
        <path fill-rule="evenodd" clip-rule="evenodd" d="M65.7961 30.8488V32.1778H67.1193V30.8488H65.7961Z" fill="#8D93A1"/>
        <path fill-rule="evenodd" clip-rule="evenodd" d="M48.2514 30.8488V32.1778H49.5746V30.8488H48.2514Z" fill="#8D93A1"/>
        <path fill-rule="evenodd" clip-rule="evenodd" d="M13.1575 30.8488V32.1778H14.4854V30.8488H13.1575Z" fill="#8D93A1"/>
        <path fill-rule="evenodd" clip-rule="evenodd" d="M39.4767 30.8488V32.1778H40.8047V30.8488H39.4767Z" fill="#8D93A1"/>
        <path fill-rule="evenodd" clip-rule="evenodd" d="M74.5708 30.8488V32.1778H75.894V30.8488H74.5708Z" fill="#8D93A1"/>
        <path fill-rule="evenodd" clip-rule="evenodd" d="M57.0215 30.8488V32.1778H58.3494V30.8488H57.0215Z" fill="#8D93A1"/>
        <path fill-rule="evenodd" clip-rule="evenodd" d="M21.932 30.8488V32.1778H23.2552V30.8488H21.932Z" fill="#8D93A1"/>
        <path fill-rule="evenodd" clip-rule="evenodd" d="M35.0892 30.8488V32.1778H36.4172V30.8488H35.0892Z" fill="#8D93A1"/>
        <path fill-rule="evenodd" clip-rule="evenodd" d="M70.1835 30.8488V32.1778H71.5068V30.8488H70.1835Z" fill="#8D93A1"/>
        <path fill-rule="evenodd" clip-rule="evenodd" d="M52.6388 30.8488V32.1778H53.962V30.8488H52.6388Z" fill="#8D93A1"/>
        <path fill-rule="evenodd" clip-rule="evenodd" d="M43.8641 30.8488V32.1778H45.1874V30.8488H43.8641Z" fill="#8D93A1"/>
        <path fill-rule="evenodd" clip-rule="evenodd" d="M8.77472 30.8488V32.1778H10.0979V30.8488H8.77472Z" fill="#8D93A1"/>
        <path fill-rule="evenodd" clip-rule="evenodd" d="M61.4087 30.8488V32.1778H62.7367V30.8488H61.4087Z" fill="#8D93A1"/>
        <path fill-rule="evenodd" clip-rule="evenodd" d="M26.3194 30.8488V32.1778H27.6426V30.8488H26.3194Z" fill="#8D93A1"/>
        <path fill-rule="evenodd" clip-rule="evenodd" d="M32.8981 30.8488V32.1778H34.2214V30.8488H32.8981Z" fill="#8D93A1"/>
        <path fill-rule="evenodd" clip-rule="evenodd" d="M67.9921 30.8488V32.1778H69.3154V30.8488H67.9921Z" fill="#8D93A1"/>
        <path fill-rule="evenodd" clip-rule="evenodd" d="M50.4427 30.8488V32.1778H51.7707V30.8488H50.4427Z" fill="#8D93A1"/>
        <path fill-rule="evenodd" clip-rule="evenodd" d="M15.3533 30.8488V32.1778H16.6765V30.8488H15.3533Z" fill="#8D93A1"/>
        <path fill-rule="evenodd" clip-rule="evenodd" d="M41.6727 30.8488V32.1778H42.9959V30.8488H41.6727Z" fill="#8D93A1"/>
        <path fill-rule="evenodd" clip-rule="evenodd" d="M76.7622 30.8488V32.1778H78.0855V30.8488H76.7622Z" fill="#8D93A1"/>
        <path fill-rule="evenodd" clip-rule="evenodd" d="M59.2175 30.8488V32.1778H60.5407V30.8488H59.2175Z" fill="#8D93A1"/>
        <path fill-rule="evenodd" clip-rule="evenodd" d="M24.1234 30.8488V32.1778H25.4513V30.8488H24.1234Z" fill="#8D93A1"/>
        <path fill-rule="evenodd" clip-rule="evenodd" d="M37.2853 30.8488V32.1778H38.6085V30.8488H37.2853Z" fill="#8D93A1"/>
        <path fill-rule="evenodd" clip-rule="evenodd" d="M72.3748 30.8488V32.1778H73.7027V30.8488H72.3748Z" fill="#8D93A1"/>
        <path fill-rule="evenodd" clip-rule="evenodd" d="M54.83 30.8488V32.1778H56.1532V30.8488H54.83Z" fill="#8D93A1"/>
        <path fill-rule="evenodd" clip-rule="evenodd" d="M46.0554 30.8488V32.1778H47.3833V30.8488H46.0554Z" fill="#8D93A1"/>
        <path fill-rule="evenodd" clip-rule="evenodd" d="M10.9661 30.8488V32.1778H12.2893V30.8488H10.9661Z" fill="#8D93A1"/>
        <path fill-rule="evenodd" clip-rule="evenodd" d="M10.9661 37.4557V38.7847H12.2893V37.4557H10.9661Z" fill="#8D93A1"/>
        <path fill-rule="evenodd" clip-rule="evenodd" d="M63.6046 30.8488V32.1778H64.9279V30.8488H63.6046Z" fill="#8D93A1"/>
        <path fill-rule="evenodd" clip-rule="evenodd" d="M28.5109 30.8488V32.1778H29.8387V30.8488H28.5109Z" fill="#8D93A1"/>
        <path fill-rule="evenodd" clip-rule="evenodd" d="M30.7066 22.0363V23.3652H32.0299V22.0363H30.7066Z" fill="#8D93A1"/>
        <path fill-rule="evenodd" clip-rule="evenodd" d="M65.7961 22.0363V23.3652H67.1193V22.0363H65.7961Z" fill="#8D93A1"/>
        <path fill-rule="evenodd" clip-rule="evenodd" d="M48.2514 22.0363V23.3652H49.5746V22.0363H48.2514Z" fill="#8D93A1"/>
        <path fill-rule="evenodd" clip-rule="evenodd" d="M13.1575 22.0363V23.3652H14.4854V22.0363H13.1575Z" fill="#8D93A1"/>
        <path fill-rule="evenodd" clip-rule="evenodd" d="M39.4767 22.0363V23.3652H40.8047V22.0363H39.4767Z" fill="#8D93A1"/>
        <path fill-rule="evenodd" clip-rule="evenodd" d="M57.0215 22.0363V23.3652H58.3494V22.0363H57.0215Z" fill="#8D93A1"/>
        <path fill-rule="evenodd" clip-rule="evenodd" d="M21.932 22.0363V23.3652H23.2552V22.0363H21.932Z" fill="#8D93A1"/>
        <path fill-rule="evenodd" clip-rule="evenodd" d="M4.38745 30.8488V32.1778H5.7107V30.8488H4.38745Z" fill="#8D93A1"/>
        <path fill-rule="evenodd" clip-rule="evenodd" d="M35.0892 22.0363V23.3652H36.4172V22.0363H35.0892Z" fill="#8D93A1"/>
        <path fill-rule="evenodd" clip-rule="evenodd" d="M52.6388 22.0363V23.3652H53.962V22.0363H52.6388Z" fill="#8D93A1"/>
        <path fill-rule="evenodd" clip-rule="evenodd" d="M17.5447 22.0363V23.3652H18.8727V22.0363H17.5447Z" fill="#8D93A1"/>
        <path fill-rule="evenodd" clip-rule="evenodd" d="M0 30.8488V32.1778H1.32325V30.8488H0Z" fill="#8D93A1"/>
        <path fill-rule="evenodd" clip-rule="evenodd" d="M43.8641 22.0363V23.3652H45.1874V22.0363H43.8641Z" fill="#8D93A1"/>
        <path fill-rule="evenodd" clip-rule="evenodd" d="M61.4087 22.0363V23.3652H62.7367V22.0363H61.4087Z" fill="#8D93A1"/>
        <path fill-rule="evenodd" clip-rule="evenodd" d="M26.3194 22.0363V23.3652H27.6426V22.0363H26.3194Z" fill="#8D93A1"/>
        <path fill-rule="evenodd" clip-rule="evenodd" d="M32.8981 22.0363V23.3652H34.2214V22.0363H32.8981Z" fill="#8D93A1"/>
        <path fill-rule="evenodd" clip-rule="evenodd" d="M67.9921 22.0363V23.3652H69.3154V22.0363H67.9921Z" fill="#8D93A1"/>
        <path fill-rule="evenodd" clip-rule="evenodd" d="M50.4427 22.0363V23.3652H51.7707V22.0363H50.4427Z" fill="#8D93A1"/>
        <path fill-rule="evenodd" clip-rule="evenodd" d="M15.3533 22.0363V23.3652H16.6765V22.0363H15.3533Z" fill="#8D93A1"/>
        <path fill-rule="evenodd" clip-rule="evenodd" d="M41.6727 22.0363V23.3652H42.9959V22.0363H41.6727Z" fill="#8D93A1"/>
        <path fill-rule="evenodd" clip-rule="evenodd" d="M59.2175 22.0363V23.3652H60.5407V22.0363H59.2175Z" fill="#8D93A1"/>
        <path fill-rule="evenodd" clip-rule="evenodd" d="M24.1234 22.0363V23.3652H25.4513V22.0363H24.1234Z" fill="#8D93A1"/>
        <path fill-rule="evenodd" clip-rule="evenodd" d="M37.2853 22.0363V23.3652H38.6085V22.0363H37.2853Z" fill="#8D93A1"/>
        <path fill-rule="evenodd" clip-rule="evenodd" d="M54.83 22.0363V23.3652H56.1532V22.0363H54.83Z" fill="#8D93A1"/>
        <path fill-rule="evenodd" clip-rule="evenodd" d="M19.7405 22.0363V23.3652H21.0638V22.0363H19.7405Z" fill="#8D93A1"/>
        <path fill-rule="evenodd" clip-rule="evenodd" d="M2.19141 30.8488V32.1778H3.51934V30.8488H2.19141Z" fill="#8D93A1"/>
        <path fill-rule="evenodd" clip-rule="evenodd" d="M46.0554 22.0363V23.3652H47.3833V22.0363H46.0554Z" fill="#8D93A1"/>
        <path fill-rule="evenodd" clip-rule="evenodd" d="M63.6046 22.0363V23.3652H64.9279V22.0363H63.6046Z" fill="#8D93A1"/>
        <path fill-rule="evenodd" clip-rule="evenodd" d="M28.5109 22.0363V23.3652H29.8387V22.0363H28.5109Z" fill="#8D93A1"/>
        <path d="M97.4417 16.3515H103.781V17.425H96.2937V6.65955H103.624V7.7406H97.4417V11.2766H102.401V12.3501H97.4417V16.3515Z" fill="#8D93A1"/>
        <path d="M115.071 17.425H113.93V8.73909L107.36 17.425H106.368V6.65955H107.517V15.353L114.079 6.65955H115.071V17.425Z" fill="#8D93A1"/>
        <path d="M119.507 15.9612C118.439 14.8851 117.905 13.5788 117.905 12.0423C117.905 10.5058 118.439 9.19949 119.507 8.12348C120.576 7.04742 121.874 6.5094 123.4 6.5094C123.942 6.5094 124.462 6.58697 124.959 6.74213C125.456 6.89227 125.867 7.07495 126.189 7.29016C126.518 7.50537 126.804 7.72309 127.047 7.9433C127.296 8.16351 127.475 8.3512 127.584 8.50635L127.756 8.73909L126.988 9.42977C126.958 9.37971 126.913 9.31463 126.854 9.23459C126.793 9.14943 126.654 9.00183 126.435 8.79162C126.217 8.58141 125.978 8.39624 125.72 8.23608C125.466 8.07092 125.13 7.92077 124.713 7.78564C124.295 7.65051 123.858 7.58294 123.4 7.58294C122.178 7.58294 121.146 8.01086 120.306 8.8667C119.466 9.72249 119.046 10.7811 119.046 12.0423C119.046 13.3035 119.466 14.3621 120.306 15.2179C121.146 16.0737 122.178 16.5017 123.4 16.5017C123.858 16.5017 124.295 16.4391 124.713 16.3139C125.13 16.1838 125.476 16.0287 125.75 15.8485C126.028 15.6683 126.272 15.4907 126.48 15.3155C126.689 15.1353 126.838 14.9777 126.928 14.8425L127.07 14.6549L127.83 15.353C127.79 15.4131 127.728 15.4932 127.644 15.5933C127.565 15.6883 127.383 15.8635 127.1 16.1187C126.821 16.3741 126.525 16.6018 126.212 16.8019C125.899 17.0021 125.486 17.1823 124.974 17.3424C124.467 17.4976 123.942 17.5752 123.4 17.5752C121.874 17.5752 120.576 17.0371 119.507 15.9612Z" fill="#8D93A1"/>
        <path d="M100.649 29.672C100.709 29.682 100.786 29.707 100.881 29.7471C100.98 29.7821 101.156 29.8697 101.41 30.0098C101.664 30.145 101.889 30.3051 102.089 30.4903C102.287 30.6755 102.466 30.9357 102.625 31.2711C102.785 31.6014 102.864 31.9667 102.864 32.3672C102.864 33.208 102.499 33.9437 101.768 34.5743C101.042 35.1999 100.108 35.5127 98.9639 35.5127C98.4964 35.5127 98.0441 35.4551 97.6063 35.3401C97.1693 35.2199 96.8062 35.0798 96.5177 34.9197C96.2343 34.7545 95.9831 34.5894 95.7642 34.4242C95.5462 34.259 95.3917 34.1214 95.3027 34.0113L95.1457 33.8236L95.9136 33.0578C95.9433 33.0979 95.9857 33.1504 96.0408 33.2155C96.1002 33.2756 96.2241 33.3857 96.4133 33.5458C96.6076 33.7009 96.8138 33.8411 97.0327 33.9662C97.2508 34.0863 97.5367 34.1964 97.8897 34.2966C98.2427 34.3916 98.6007 34.4392 98.9639 34.4392C99.809 34.4392 100.478 34.2339 100.97 33.8236C101.467 33.4132 101.716 32.9277 101.716 32.3672C101.716 31.7616 101.467 31.251 100.97 30.8356C100.478 30.4203 99.809 30.2125 98.9639 30.2125H97.748V29.139H98.9639C99.6944 29.139 100.271 28.9663 100.694 28.621C101.122 28.2756 101.335 27.8578 101.335 27.3673C101.335 26.8468 101.124 26.4088 100.702 26.0535C100.279 25.6982 99.6995 25.5205 98.9639 25.5205C98.4667 25.5205 97.9966 25.6231 97.5545 25.8283C97.1116 26.0334 96.7892 26.2387 96.5847 26.4439L96.2945 26.7517L95.5334 25.9859C95.5631 25.9459 95.6107 25.8909 95.6751 25.8207C95.7396 25.7457 95.8813 25.6206 96.1002 25.4454C96.3191 25.2702 96.5499 25.1176 96.7935 24.9874C97.0421 24.8523 97.3602 24.7297 97.748 24.6196C98.1408 24.5045 98.5464 24.4469 98.9639 24.4469C100.033 24.4469 100.886 24.7222 101.522 25.2727C102.158 25.8183 102.477 26.4914 102.477 27.2922C102.477 27.6425 102.411 27.9603 102.282 28.2456C102.158 28.5309 102.007 28.7586 101.828 28.9288C101.654 29.0989 101.477 29.2441 101.298 29.3643C101.119 29.4793 100.962 29.5619 100.828 29.612L100.649 29.672Z" fill="#8D93A1"/>
        <path d="M111.171 31.2861L109.113 26.2112L107.047 31.2861H111.171ZM111.633 32.3671H106.593L105.369 35.3625H104.146L108.576 24.597H109.643L114.072 35.3625H112.857L111.633 32.3671Z" fill="#8D93A1"/>
        <path d="M117.517 30.6705L123.013 24.597H124.46L120.418 29.0564L124.848 35.3625H123.468L119.65 29.9048L117.517 32.2095V35.3625H116.369V24.597H117.517V30.6705Z" fill="#8D93A1"/>
        <path d="M130.269 30.9032L133.17 24.597H134.393L130.418 32.9827C129.981 33.9036 129.536 34.5568 129.083 34.9421C128.631 35.3225 128.032 35.5127 127.286 35.5127C127.122 35.5127 126.958 35.5002 126.794 35.4752C126.635 35.4502 126.516 35.4226 126.436 35.3926L126.294 35.3625V34.289C126.548 34.3891 126.854 34.4392 127.212 34.4392C127.688 34.4392 128.067 34.3291 128.345 34.1089C128.629 33.8886 128.912 33.5133 129.195 32.9827L129.658 32.1344C129.329 31.5088 128.708 30.3327 127.793 28.606C126.878 26.8793 126.175 25.543 125.683 24.597H126.906L130.269 30.9032Z" fill="#8D93A1"/>
        <path d="M144.781 24.597V35.3625H143.632V25.6781H137.681V35.3625H136.533V24.597H144.781Z" fill="#8D93A1"/>
        <path d="M149.441 30.6705L154.938 24.597H156.384L152.342 29.0564L156.772 35.3625H155.392L151.574 29.9048L149.441 32.2095V35.3625H148.293V24.597H149.441V30.6705Z" fill="#8D93A1"/>
        <path d="M167.533 35.3625H166.392V26.6766L159.821 35.3625H158.83V24.597H159.978V33.2905L166.541 24.597H167.533V35.3625Z" fill="#8D93A1"/>
    </g>
    <defs>
        <clipPath id="clip0_11_519">
            <rect width="168" height="41" fill="white"/>
        </clipPath>
    </defs>
</svg>
