<svg width="168" height="41" viewBox="0 0 168 41" fill="none" xmlns="http://www.w3.org/2000/svg">
    <path fill-rule="evenodd" clip-rule="evenodd" d="M65.7961 13.2238V14.5574H67.1193V13.2238H65.7961Z" fill="#8D93A1"/>
    <path fill-rule="evenodd" clip-rule="evenodd" d="M65.7961 6.6167V7.95036H67.1193V6.6167H65.7961Z" fill="#8D93A1"/>
    <path fill-rule="evenodd" clip-rule="evenodd" d="M48.2514 37.4557V38.7847H49.5746V37.4557H48.2514Z" fill="#8D93A1"/>
    <path fill-rule="evenodd" clip-rule="evenodd" d="M39.4767 37.4557V38.7847H40.8047V37.4557H39.4767Z" fill="#8D93A1"/>
    <path fill-rule="evenodd" clip-rule="evenodd" d="M74.5708 37.4557V38.7847H75.894V37.4557H74.5708Z" fill="#8D93A1"/>
    <path fill-rule="evenodd" clip-rule="evenodd" d="M74.5708 13.2238V14.5574H75.894V13.2238H74.5708Z" fill="#8D93A1"/>
    <path fill-rule="evenodd" clip-rule="evenodd" d="M76.7622 13.2238V14.5574H78.0855V13.2238H76.7622Z" fill="#8D93A1"/>
    <path fill-rule="evenodd" clip-rule="evenodd" d="M57.0215 37.4557V38.7847H58.3494V37.4557H57.0215Z" fill="#8D93A1"/>
    <path fill-rule="evenodd" clip-rule="evenodd" d="M21.932 13.2238V14.5574H23.2552V13.2238H21.932Z" fill="#8D93A1"/>
    <path fill-rule="evenodd" clip-rule="evenodd" d="M35.0892 11.0229V12.3519H36.4172V11.0229H35.0892Z" fill="#8D93A1"/>
    <path fill-rule="evenodd" clip-rule="evenodd" d="M35.0892 13.2238V14.5574H36.4172V13.2238H35.0892Z" fill="#8D93A1"/>
    <path fill-rule="evenodd" clip-rule="evenodd" d="M70.1835 13.2238V14.5574H71.5068V13.2238H70.1835Z" fill="#8D93A1"/>
    <path fill-rule="evenodd" clip-rule="evenodd" d="M70.1835 6.6167V7.95036H71.5068V6.6167H70.1835Z" fill="#8D93A1"/>
    <path fill-rule="evenodd" clip-rule="evenodd" d="M74.5708 6.6167V7.95036H75.894V6.6167H74.5708Z" fill="#8D93A1"/>
    <path fill-rule="evenodd" clip-rule="evenodd" d="M52.6388 37.4557V38.7847H53.962V37.4557H52.6388Z" fill="#8D93A1"/>
    <path fill-rule="evenodd" clip-rule="evenodd" d="M43.8641 37.4557V38.7847H45.1874V37.4557H43.8641Z" fill="#8D93A1"/>
    <path fill-rule="evenodd" clip-rule="evenodd" d="M61.4087 37.4557V38.7847H62.7367V37.4557H61.4087Z" fill="#8D93A1"/>
    <path fill-rule="evenodd" clip-rule="evenodd" d="M61.4087 13.2238V14.5574H62.7367V13.2238H61.4087Z" fill="#8D93A1"/>
    <path fill-rule="evenodd" clip-rule="evenodd" d="M61.4087 11.0229V12.3519H62.7367V11.0229H61.4087Z" fill="#8D93A1"/>
    <path fill-rule="evenodd" clip-rule="evenodd" d="M30.7066 19.8354V21.1644H32.0299V19.8354H30.7066Z" fill="#8D93A1"/>
    <path fill-rule="evenodd" clip-rule="evenodd" d="M65.7961 19.8354V21.1644H67.1193V19.8354H65.7961Z" fill="#8D93A1"/>
    <path fill-rule="evenodd" clip-rule="evenodd" d="M48.2514 19.8354V21.1644H49.5746V19.8354H48.2514Z" fill="#8D93A1"/>
    <path fill-rule="evenodd" clip-rule="evenodd" d="M13.1575 19.8354V21.1644H14.4854V19.8354H13.1575Z" fill="#8D93A1"/>
    <path fill-rule="evenodd" clip-rule="evenodd" d="M39.4767 19.8354V21.1644H40.8047V19.8354H39.4767Z" fill="#8D93A1"/>
    <path fill-rule="evenodd" clip-rule="evenodd" d="M57.0215 19.8354V21.1644H58.3494V19.8354H57.0215Z" fill="#8D93A1"/>
    <path fill-rule="evenodd" clip-rule="evenodd" d="M21.932 19.8354V21.1644H23.2552V19.8354H21.932Z" fill="#8D93A1"/>
    <path fill-rule="evenodd" clip-rule="evenodd" d="M35.0892 19.8354V21.1644H36.4172V19.8354H35.0892Z" fill="#8D93A1"/>
    <path fill-rule="evenodd" clip-rule="evenodd" d="M35.0892 6.6167V7.95036H36.4172V6.6167H35.0892Z" fill="#8D93A1"/>
    <path fill-rule="evenodd" clip-rule="evenodd" d="M70.1835 19.8354V21.1644H71.5068V19.8354H70.1835Z" fill="#8D93A1"/>
    <path fill-rule="evenodd" clip-rule="evenodd" d="M52.6388 19.8354V21.1644H53.962V19.8354H52.6388Z" fill="#8D93A1"/>
    <path fill-rule="evenodd" clip-rule="evenodd" d="M17.5447 19.8354V21.1644H18.8727V19.8354H17.5447Z" fill="#8D93A1"/>
    <path fill-rule="evenodd" clip-rule="evenodd" d="M43.8641 19.8354V21.1644H45.1874V19.8354H43.8641Z" fill="#8D93A1"/>
    <path fill-rule="evenodd" clip-rule="evenodd" d="M43.8641 15.4293V16.7582H45.1874V15.4293H43.8641Z" fill="#8D93A1"/>
    <path fill-rule="evenodd" clip-rule="evenodd" d="M61.4087 19.8354V21.1644H62.7367V19.8354H61.4087Z" fill="#8D93A1"/>
    <path fill-rule="evenodd" clip-rule="evenodd" d="M26.3194 19.8354V21.1644H27.6426V19.8354H26.3194Z" fill="#8D93A1"/>
    <path fill-rule="evenodd" clip-rule="evenodd" d="M30.7066 13.2238V14.5574H32.0299V13.2238H30.7066Z" fill="#8D93A1"/>
    <path fill-rule="evenodd" clip-rule="evenodd" d="M67.9921 13.2238V14.5574H69.3154V13.2238H67.9921Z" fill="#8D93A1"/>
    <path fill-rule="evenodd" clip-rule="evenodd" d="M67.9921 6.6167V7.95036H69.3154V6.6167H67.9921Z" fill="#8D93A1"/>
    <path fill-rule="evenodd" clip-rule="evenodd" d="M50.4427 37.4557V38.7847H51.7707V37.4557H50.4427Z" fill="#8D93A1"/>
    <path fill-rule="evenodd" clip-rule="evenodd" d="M41.6727 37.4557V38.7847H42.9959V37.4557H41.6727Z" fill="#8D93A1"/>
    <path fill-rule="evenodd" clip-rule="evenodd" d="M59.2175 37.4557V38.7847H60.5407V37.4557H59.2175Z" fill="#8D93A1"/>
    <path fill-rule="evenodd" clip-rule="evenodd" d="M59.2175 13.2238V14.5574H60.5407V13.2238H59.2175Z" fill="#8D93A1"/>
    <path fill-rule="evenodd" clip-rule="evenodd" d="M24.1234 13.2238V14.5574H25.4513V13.2238H24.1234Z" fill="#8D93A1"/>
    <path fill-rule="evenodd" clip-rule="evenodd" d="M37.2853 11.0229V12.3519H38.6085V11.0229H37.2853Z" fill="#8D93A1"/>
    <path fill-rule="evenodd" clip-rule="evenodd" d="M37.2853 37.4557V38.7847H38.6085V37.4557H37.2853Z" fill="#8D93A1"/>
    <path fill-rule="evenodd" clip-rule="evenodd" d="M72.3748 13.2238V14.5574H73.7027V13.2238H72.3748Z" fill="#8D93A1"/>
    <path fill-rule="evenodd" clip-rule="evenodd" d="M72.3748 6.6167V7.95036H73.7027V6.6167H72.3748Z" fill="#8D93A1"/>
    <path fill-rule="evenodd" clip-rule="evenodd" d="M76.7622 6.6167V7.95036H78.0902V6.6167H76.7622Z" fill="#8D93A1"/>
    <path fill-rule="evenodd" clip-rule="evenodd" d="M76.7622 4.41589V5.74484H78.0902V4.41589H76.7622Z" fill="#8D93A1"/>
    <path fill-rule="evenodd" clip-rule="evenodd" d="M54.83 37.4557V38.7847H56.1532V37.4557H54.83Z" fill="#8D93A1"/>
    <path fill-rule="evenodd" clip-rule="evenodd" d="M54.83 13.2238V14.5574H56.1532V13.2238H54.83Z" fill="#8D93A1"/>
    <path fill-rule="evenodd" clip-rule="evenodd" d="M46.0554 37.4557V38.7847H47.3833V37.4557H46.0554Z" fill="#8D93A1"/>
    <path fill-rule="evenodd" clip-rule="evenodd" d="M46.0554 13.2238V14.5574H47.3833V13.2238H46.0554Z" fill="#8D93A1"/>
    <path fill-rule="evenodd" clip-rule="evenodd" d="M48.2514 13.2238V14.5574H49.5746V13.2238H48.2514Z" fill="#8D93A1"/>
    <path fill-rule="evenodd" clip-rule="evenodd" d="M46.0554 11.0229V12.3519H47.3833V11.0229H46.0554Z" fill="#8D93A1"/>
    <path fill-rule="evenodd" clip-rule="evenodd" d="M63.6046 13.2238V14.5574H64.9279V13.2238H63.6046Z" fill="#8D93A1"/>
    <path fill-rule="evenodd" clip-rule="evenodd" d="M32.8981 19.8354V21.1644H34.2214V19.8354H32.8981Z" fill="#8D93A1"/>
    <path fill-rule="evenodd" clip-rule="evenodd" d="M67.9921 19.8354V21.1644H69.3154V19.8354H67.9921Z" fill="#8D93A1"/>
    <path fill-rule="evenodd" clip-rule="evenodd" d="M50.4427 19.8354V21.1644H51.7707V19.8354H50.4427Z" fill="#8D93A1"/>
    <path fill-rule="evenodd" clip-rule="evenodd" d="M15.3533 19.8354V21.1644H16.6765V19.8354H15.3533Z" fill="#8D93A1"/>
    <path fill-rule="evenodd" clip-rule="evenodd" d="M41.6727 19.8354V21.1644H42.9959V19.8354H41.6727Z" fill="#8D93A1"/>
    <path fill-rule="evenodd" clip-rule="evenodd" d="M59.2175 19.8354V21.1644H60.5407V19.8354H59.2175Z" fill="#8D93A1"/>
    <path fill-rule="evenodd" clip-rule="evenodd" d="M24.1234 19.8354V21.1644H25.4513V19.8354H24.1234Z" fill="#8D93A1"/>
    <path fill-rule="evenodd" clip-rule="evenodd" d="M37.2853 19.8354V21.1644H38.6085V19.8354H37.2853Z" fill="#8D93A1"/>
    <path fill-rule="evenodd" clip-rule="evenodd" d="M37.2853 6.6167V7.95036H38.6085V6.6167H37.2853Z" fill="#8D93A1"/>
    <path fill-rule="evenodd" clip-rule="evenodd" d="M54.83 19.8354V21.1644H56.1532V19.8354H54.83Z" fill="#8D93A1"/>
    <path fill-rule="evenodd" clip-rule="evenodd" d="M19.7405 19.8354V21.1644H21.0638V19.8354H19.7405Z" fill="#8D93A1"/>
    <path fill-rule="evenodd" clip-rule="evenodd" d="M46.0554 19.8354V21.1644H47.3833V19.8354H46.0554Z" fill="#8D93A1"/>
    <path fill-rule="evenodd" clip-rule="evenodd" d="M63.6046 19.8354V21.1644H64.9279V19.8354H63.6046Z" fill="#8D93A1"/>
    <path fill-rule="evenodd" clip-rule="evenodd" d="M28.5109 19.8354V21.1644H29.8387V19.8354H28.5109Z" fill="#8D93A1"/>
    <path fill-rule="evenodd" clip-rule="evenodd" d="M30.7066 28.6432V29.9768H32.0299V28.6432H30.7066Z" fill="#8D93A1"/>
    <path fill-rule="evenodd" clip-rule="evenodd" d="M65.7961 28.6432V29.9768H67.1193V28.6432H65.7961Z" fill="#8D93A1"/>
    <path fill-rule="evenodd" clip-rule="evenodd" d="M48.2514 28.6432V29.9768H49.5746V28.6432H48.2514Z" fill="#8D93A1"/>
    <path fill-rule="evenodd" clip-rule="evenodd" d="M13.1575 28.6432V29.9768H14.4854V28.6432H13.1575Z" fill="#8D93A1"/>
    <path fill-rule="evenodd" clip-rule="evenodd" d="M39.4767 28.6432V29.9768H40.8047V28.6432H39.4767Z" fill="#8D93A1"/>
    <path fill-rule="evenodd" clip-rule="evenodd" d="M74.5708 28.6432V29.9768H75.894V28.6432H74.5708Z" fill="#8D93A1"/>
    <path fill-rule="evenodd" clip-rule="evenodd" d="M74.5708 26.4425V27.7714H75.894V26.4425H74.5708Z" fill="#8D93A1"/>
    <path fill-rule="evenodd" clip-rule="evenodd" d="M57.0215 28.6432V29.9768H58.3494V28.6432H57.0215Z" fill="#8D93A1"/>
    <path fill-rule="evenodd" clip-rule="evenodd" d="M21.932 28.6432V29.9768H23.2552V28.6432H21.932Z" fill="#8D93A1"/>
    <path fill-rule="evenodd" clip-rule="evenodd" d="M35.0892 28.6432V29.9768H36.4172V28.6432H35.0892Z" fill="#8D93A1"/>
    <path fill-rule="evenodd" clip-rule="evenodd" d="M52.6388 28.6432V29.9768H53.962V28.6432H52.6388Z" fill="#8D93A1"/>
    <path fill-rule="evenodd" clip-rule="evenodd" d="M17.5447 28.6432V29.9768H18.8727V28.6432H17.5447Z" fill="#8D93A1"/>
    <path fill-rule="evenodd" clip-rule="evenodd" d="M17.5447 30.8488V32.1778H18.8727V30.8488H17.5447Z" fill="#8D93A1"/>
    <path fill-rule="evenodd" clip-rule="evenodd" d="M43.8641 28.6432V29.9768H45.1874V28.6432H43.8641Z" fill="#8D93A1"/>
    <path fill-rule="evenodd" clip-rule="evenodd" d="M61.4087 28.6432V29.9768H62.7367V28.6432H61.4087Z" fill="#8D93A1"/>
    <path fill-rule="evenodd" clip-rule="evenodd" d="M26.3194 28.6432V29.9768H27.6426V28.6432H26.3194Z" fill="#8D93A1"/>
    <path fill-rule="evenodd" clip-rule="evenodd" d="M32.8981 28.6432V29.9768H34.2214V28.6432H32.8981Z" fill="#8D93A1"/>
    <path fill-rule="evenodd" clip-rule="evenodd" d="M67.9921 28.6432V29.9768H69.3154V28.6432H67.9921Z" fill="#8D93A1"/>
    <path fill-rule="evenodd" clip-rule="evenodd" d="M50.4427 28.6432V29.9768H51.7707V28.6432H50.4427Z" fill="#8D93A1"/>
    <path fill-rule="evenodd" clip-rule="evenodd" d="M15.3533 28.6432V29.9768H16.6765V28.6432H15.3533Z" fill="#8D93A1"/>
    <path fill-rule="evenodd" clip-rule="evenodd" d="M41.6727 28.6432V29.9768H42.9959V28.6432H41.6727Z" fill="#8D93A1"/>
    <path fill-rule="evenodd" clip-rule="evenodd" d="M76.7622 28.6432V29.9768H78.0855V28.6432H76.7622Z" fill="#8D93A1"/>
    <path fill-rule="evenodd" clip-rule="evenodd" d="M59.2175 28.6432V29.9768H60.5407V28.6432H59.2175Z" fill="#8D93A1"/>
    <path fill-rule="evenodd" clip-rule="evenodd" d="M24.1234 28.6432V29.9768H25.4513V28.6432H24.1234Z" fill="#8D93A1"/>
    <path fill-rule="evenodd" clip-rule="evenodd" d="M37.2853 28.6432V29.9768H38.6085V28.6432H37.2853Z" fill="#8D93A1"/>
    <path fill-rule="evenodd" clip-rule="evenodd" d="M72.3748 28.6432V29.9768H73.7027V28.6432H72.3748Z" fill="#8D93A1"/>
    <path fill-rule="evenodd" clip-rule="evenodd" d="M70.1835 28.6432V29.9768H71.5068V28.6432H70.1835Z" fill="#8D93A1"/>
    <path fill-rule="evenodd" clip-rule="evenodd" d="M54.83 28.6432V29.9768H56.1532V28.6432H54.83Z" fill="#8D93A1"/>
    <path fill-rule="evenodd" clip-rule="evenodd" d="M19.7405 28.6432V29.9768H21.0638V28.6432H19.7405Z" fill="#8D93A1"/>
    <path fill-rule="evenodd" clip-rule="evenodd" d="M19.7405 30.8488V32.1778H21.0638V30.8488H19.7405Z" fill="#8D93A1"/>
    <path fill-rule="evenodd" clip-rule="evenodd" d="M46.0554 28.6432V29.9768H47.3833V28.6432H46.0554Z" fill="#8D93A1"/>
    <path fill-rule="evenodd" clip-rule="evenodd" d="M10.9661 28.6432V29.9768H12.2893V28.6432H10.9661Z" fill="#8D93A1"/>
    <path fill-rule="evenodd" clip-rule="evenodd" d="M63.6046 28.6432V29.9768H64.9279V28.6432H63.6046Z" fill="#8D93A1"/>
    <path fill-rule="evenodd" clip-rule="evenodd" d="M28.5109 28.6432V29.9768H29.8387V28.6432H28.5109Z" fill="#8D93A1"/>
    <path fill-rule="evenodd" clip-rule="evenodd" d="M30.7066 33.0494V34.3784H32.0299V33.0494H30.7066Z" fill="#8D93A1"/>
    <path fill-rule="evenodd" clip-rule="evenodd" d="M65.7961 8.82214V10.1511H67.1193V8.82214H65.7961Z" fill="#8D93A1"/>
    <path fill-rule="evenodd" clip-rule="evenodd" d="M48.2514 33.0494V34.3784H49.5746V33.0494H48.2514Z" fill="#8D93A1"/>
    <path fill-rule="evenodd" clip-rule="evenodd" d="M48.2514 39.6565V40.9902H49.5746V39.6565H48.2514Z" fill="#8D93A1"/>
    <path fill-rule="evenodd" clip-rule="evenodd" d="M13.1575 33.0494V34.3784H14.4854V33.0494H13.1575Z" fill="#8D93A1"/>
    <path fill-rule="evenodd" clip-rule="evenodd" d="M15.3533 33.0494V34.3784H16.6765V33.0494H15.3533Z" fill="#8D93A1"/>
    <path fill-rule="evenodd" clip-rule="evenodd" d="M39.4767 33.0494V34.3784H40.8047V33.0494H39.4767Z" fill="#8D93A1"/>
    <path fill-rule="evenodd" clip-rule="evenodd" d="M39.4767 39.6565V40.9902H40.8047V39.6565H39.4767Z" fill="#8D93A1"/>
    <path fill-rule="evenodd" clip-rule="evenodd" d="M74.5708 33.0494V34.3784H75.894V33.0494H74.5708Z" fill="#8D93A1"/>
    <path fill-rule="evenodd" clip-rule="evenodd" d="M57.0215 33.0494V34.3784H58.3494V33.0494H57.0215Z" fill="#8D93A1"/>
    <path fill-rule="evenodd" clip-rule="evenodd" d="M57.0215 39.6565V40.9902H58.3494V39.6565H57.0215Z" fill="#8D93A1"/>
    <path fill-rule="evenodd" clip-rule="evenodd" d="M21.932 33.0494V34.3784H23.2552V33.0494H21.932Z" fill="#8D93A1"/>
    <path fill-rule="evenodd" clip-rule="evenodd" d="M35.0892 33.0494V34.3784H36.4172V33.0494H35.0892Z" fill="#8D93A1"/>
    <path fill-rule="evenodd" clip-rule="evenodd" d="M70.1835 33.0494V34.3784H71.5068V33.0494H70.1835Z" fill="#8D93A1"/>
    <path fill-rule="evenodd" clip-rule="evenodd" d="M70.1835 8.82214V10.1511H71.5068V8.82214H70.1835Z" fill="#8D93A1"/>
    <path fill-rule="evenodd" clip-rule="evenodd" d="M74.5708 8.82214V10.1511H75.894V8.82214H74.5708Z" fill="#8D93A1"/>
    <path fill-rule="evenodd" clip-rule="evenodd" d="M70.1835 2.21045V3.54411H71.5068V2.21045H70.1835Z" fill="#8D93A1"/>
    <path fill-rule="evenodd" clip-rule="evenodd" d="M74.5708 2.21045V3.54411H75.894V2.21045H74.5708Z" fill="#8D93A1"/>
    <path fill-rule="evenodd" clip-rule="evenodd" d="M74.5708 0.00964355V1.33859H75.894V0.00964355H74.5708Z" fill="#8D93A1"/>
    <path fill-rule="evenodd" clip-rule="evenodd" d="M52.6388 33.0494V34.3784H53.962V33.0494H52.6388Z" fill="#8D93A1"/>
    <path fill-rule="evenodd" clip-rule="evenodd" d="M43.8641 33.0494V34.3784H45.1874V33.0494H43.8641Z" fill="#8D93A1"/>
    <path fill-rule="evenodd" clip-rule="evenodd" d="M43.8641 39.6565V40.9902H45.1874V39.6565H43.8641Z" fill="#8D93A1"/>
    <path fill-rule="evenodd" clip-rule="evenodd" d="M8.77472 33.0494V34.3784H10.0979V33.0494H8.77472Z" fill="#8D93A1"/>
    <path fill-rule="evenodd" clip-rule="evenodd" d="M6.57867 33.0494V34.3784H7.9066V33.0494H6.57867Z" fill="#8D93A1"/>
    <path fill-rule="evenodd" clip-rule="evenodd" d="M61.4087 33.0494V34.3784H62.7367V33.0494H61.4087Z" fill="#8D93A1"/>
    <path fill-rule="evenodd" clip-rule="evenodd" d="M26.3194 33.0494V34.3784H27.6426V33.0494H26.3194Z" fill="#8D93A1"/>
    <path fill-rule="evenodd" clip-rule="evenodd" d="M65.7961 15.4293V16.7582H67.1193V15.4293H65.7961Z" fill="#8D93A1"/>
    <path fill-rule="evenodd" clip-rule="evenodd" d="M48.2514 15.4293V16.7582H49.5746V15.4293H48.2514Z" fill="#8D93A1"/>
    <path fill-rule="evenodd" clip-rule="evenodd" d="M74.5708 15.4293V16.7582H75.894V15.4293H74.5708Z" fill="#8D93A1"/>
    <path fill-rule="evenodd" clip-rule="evenodd" d="M76.7622 15.4293V16.7582H78.0855V15.4293H76.7622Z" fill="#8D93A1"/>
    <path fill-rule="evenodd" clip-rule="evenodd" d="M78.9583 15.4293V16.7582H80.2815V15.4293H78.9583Z" fill="#8D93A1"/>
    <path fill-rule="evenodd" clip-rule="evenodd" d="M76.7622 17.63V18.9637H78.0855V17.63H76.7622Z" fill="#8D93A1"/>
    <path fill-rule="evenodd" clip-rule="evenodd" d="M78.9583 17.63V18.9637H80.2815V17.63H78.9583Z" fill="#8D93A1"/>
    <path fill-rule="evenodd" clip-rule="evenodd" d="M21.932 15.4293V16.7582H23.2552V15.4293H21.932Z" fill="#8D93A1"/>
    <path fill-rule="evenodd" clip-rule="evenodd" d="M70.1835 15.4293V16.7582H71.5068V15.4293H70.1835Z" fill="#8D93A1"/>
    <path fill-rule="evenodd" clip-rule="evenodd" d="M72.3748 15.4293V16.7582H73.7027V15.4293H72.3748Z" fill="#8D93A1"/>
    <path fill-rule="evenodd" clip-rule="evenodd" d="M52.6388 15.4293V16.7582H53.962V15.4293H52.6388Z" fill="#8D93A1"/>
    <path fill-rule="evenodd" clip-rule="evenodd" d="M50.4427 15.4293V16.7582H51.7707V15.4293H50.4427Z" fill="#8D93A1"/>
    <path fill-rule="evenodd" clip-rule="evenodd" d="M17.5447 15.4293V16.7582H18.8727V15.4293H17.5447Z" fill="#8D93A1"/>
    <path fill-rule="evenodd" clip-rule="evenodd" d="M61.4087 15.4293V16.7582H62.7367V15.4293H61.4087Z" fill="#8D93A1"/>
    <path fill-rule="evenodd" clip-rule="evenodd" d="M26.3194 15.4293V16.7582H27.6426V15.4293H26.3194Z" fill="#8D93A1"/>
    <path fill-rule="evenodd" clip-rule="evenodd" d="M32.8981 33.0494V34.3784H34.2214V33.0494H32.8981Z" fill="#8D93A1"/>
    <path fill-rule="evenodd" clip-rule="evenodd" d="M67.9921 33.0494V34.3784H69.3154V33.0494H67.9921Z" fill="#8D93A1"/>
    <path fill-rule="evenodd" clip-rule="evenodd" d="M67.9921 8.82214V10.1511H69.3154V8.82214H67.9921Z" fill="#8D93A1"/>
    <path fill-rule="evenodd" clip-rule="evenodd" d="M67.9921 2.21045V3.54411H69.3154V2.21045H67.9921Z" fill="#8D93A1"/>
    <path fill-rule="evenodd" clip-rule="evenodd" d="M72.3748 2.21045V3.54411H73.7027V2.21045H72.3748Z" fill="#8D93A1"/>
    <path fill-rule="evenodd" clip-rule="evenodd" d="M72.3748 0.00964355V1.33859H73.7027V0.00964355H72.3748Z" fill="#8D93A1"/>
    <path fill-rule="evenodd" clip-rule="evenodd" d="M50.4427 33.0494V34.3784H51.7707V33.0494H50.4427Z" fill="#8D93A1"/>
    <path fill-rule="evenodd" clip-rule="evenodd" d="M41.6727 33.0494V34.3784H42.9959V33.0494H41.6727Z" fill="#8D93A1"/>
    <path fill-rule="evenodd" clip-rule="evenodd" d="M41.6727 39.6565V40.9902H42.9959V39.6565H41.6727Z" fill="#8D93A1"/>
    <path fill-rule="evenodd" clip-rule="evenodd" d="M59.2175 33.0494V34.3784H60.5407V33.0494H59.2175Z" fill="#8D93A1"/>
    <path fill-rule="evenodd" clip-rule="evenodd" d="M24.1234 33.0494V34.3784H25.4513V33.0494H24.1234Z" fill="#8D93A1"/>
    <path fill-rule="evenodd" clip-rule="evenodd" d="M37.2853 33.0494V34.3784H38.6085V33.0494H37.2853Z" fill="#8D93A1"/>
    <path fill-rule="evenodd" clip-rule="evenodd" d="M72.3748 33.0494V34.3784H73.7027V33.0494H72.3748Z" fill="#8D93A1"/>
    <path fill-rule="evenodd" clip-rule="evenodd" d="M72.3748 8.82214V10.1511H73.7027V8.82214H72.3748Z" fill="#8D93A1"/>
    <path fill-rule="evenodd" clip-rule="evenodd" d="M76.7622 8.82214V10.1511H78.0902V8.82214H76.7622Z" fill="#8D93A1"/>
    <path fill-rule="evenodd" clip-rule="evenodd" d="M54.83 33.0494V34.3784H56.1532V33.0494H54.83Z" fill="#8D93A1"/>
    <path fill-rule="evenodd" clip-rule="evenodd" d="M46.0554 33.0494V34.3784H47.3833V33.0494H46.0554Z" fill="#8D93A1"/>
    <path fill-rule="evenodd" clip-rule="evenodd" d="M46.0554 39.6565V40.9902H47.3833V39.6565H46.0554Z" fill="#8D93A1"/>
    <path fill-rule="evenodd" clip-rule="evenodd" d="M10.9661 33.0494V34.3784H12.2893V33.0494H10.9661Z" fill="#8D93A1"/>
    <path fill-rule="evenodd" clip-rule="evenodd" d="M10.9661 39.6565V40.9902H12.2893V39.6565H10.9661Z" fill="#8D93A1"/>
    <path fill-rule="evenodd" clip-rule="evenodd" d="M28.5109 33.0494V34.3784H29.8387V33.0494H28.5109Z" fill="#8D93A1"/>
    <path fill-rule="evenodd" clip-rule="evenodd" d="M30.7066 15.4293V16.7582H32.0299V15.4293H30.7066Z" fill="#8D93A1"/>
    <path fill-rule="evenodd" clip-rule="evenodd" d="M67.9921 15.4293V16.7582H69.3154V15.4293H67.9921Z" fill="#8D93A1"/>
    <path fill-rule="evenodd" clip-rule="evenodd" d="M81.1494 17.63V18.9637H82.4726V17.63H81.1494Z" fill="#8D93A1"/>
    <path fill-rule="evenodd" clip-rule="evenodd" d="M59.2175 15.4293V16.7582H60.5407V15.4293H59.2175Z" fill="#8D93A1"/>
    <path fill-rule="evenodd" clip-rule="evenodd" d="M24.1234 15.4293V16.7582H25.4513V15.4293H24.1234Z" fill="#8D93A1"/>
    <path fill-rule="evenodd" clip-rule="evenodd" d="M19.7405 15.4293V16.7582H21.0638V15.4293H19.7405Z" fill="#8D93A1"/>
    <path fill-rule="evenodd" clip-rule="evenodd" d="M46.0554 15.4293V16.7582H47.3833V15.4293H46.0554Z" fill="#8D93A1"/>
    <path fill-rule="evenodd" clip-rule="evenodd" d="M63.6046 15.4293V16.7582H64.9279V15.4293H63.6046Z" fill="#8D93A1"/>
    <path fill-rule="evenodd" clip-rule="evenodd" d="M30.7066 24.2369V25.5706H32.0299V24.2369H30.7066Z" fill="#8D93A1"/>
    <path fill-rule="evenodd" clip-rule="evenodd" d="M65.7961 24.2369V25.5706H67.1193V24.2369H65.7961Z" fill="#8D93A1"/>
    <path fill-rule="evenodd" clip-rule="evenodd" d="M48.2514 24.2369V25.5706H49.5746V24.2369H48.2514Z" fill="#8D93A1"/>
    <path fill-rule="evenodd" clip-rule="evenodd" d="M13.1575 24.2369V25.5706H14.4854V24.2369H13.1575Z" fill="#8D93A1"/>
    <path fill-rule="evenodd" clip-rule="evenodd" d="M39.4767 24.2369V25.5706H40.8047V24.2369H39.4767Z" fill="#8D93A1"/>
    <path fill-rule="evenodd" clip-rule="evenodd" d="M57.0215 24.2369V25.5706H58.3494V24.2369H57.0215Z" fill="#8D93A1"/>
    <path fill-rule="evenodd" clip-rule="evenodd" d="M21.932 24.2369V25.5706H23.2552V24.2369H21.932Z" fill="#8D93A1"/>
    <path fill-rule="evenodd" clip-rule="evenodd" d="M35.0892 24.2369V25.5706H36.4172V24.2369H35.0892Z" fill="#8D93A1"/>
    <path fill-rule="evenodd" clip-rule="evenodd" d="M52.6388 24.2369V25.5706H53.962V24.2369H52.6388Z" fill="#8D93A1"/>
    <path fill-rule="evenodd" clip-rule="evenodd" d="M17.5447 24.2369V25.5706H18.8727V24.2369H17.5447Z" fill="#8D93A1"/>
    <path fill-rule="evenodd" clip-rule="evenodd" d="M43.8641 24.2369V25.5706H45.1874V24.2369H43.8641Z" fill="#8D93A1"/>
    <path fill-rule="evenodd" clip-rule="evenodd" d="M61.4087 24.2369V25.5706H62.7367V24.2369H61.4087Z" fill="#8D93A1"/>
    <path fill-rule="evenodd" clip-rule="evenodd" d="M10.9661 24.2369V25.5706H12.2893V24.2369H10.9661Z" fill="#8D93A1"/>
    <path fill-rule="evenodd" clip-rule="evenodd" d="M26.3194 24.2369V25.5706H27.6426V24.2369H26.3194Z" fill="#8D93A1"/>
    <path fill-rule="evenodd" clip-rule="evenodd" d="M32.8981 24.2369V25.5706H34.2214V24.2369H32.8981Z" fill="#8D93A1"/>
    <path fill-rule="evenodd" clip-rule="evenodd" d="M67.9921 24.2369V25.5706H69.3154V24.2369H67.9921Z" fill="#8D93A1"/>
    <path fill-rule="evenodd" clip-rule="evenodd" d="M50.4427 24.2369V25.5706H51.7707V24.2369H50.4427Z" fill="#8D93A1"/>
    <path fill-rule="evenodd" clip-rule="evenodd" d="M15.3533 24.2369V25.5706H16.6765V24.2369H15.3533Z" fill="#8D93A1"/>
    <path fill-rule="evenodd" clip-rule="evenodd" d="M41.6727 24.2369V25.5706H42.9959V24.2369H41.6727Z" fill="#8D93A1"/>
    <path fill-rule="evenodd" clip-rule="evenodd" d="M59.2175 24.2369V25.5706H60.5407V24.2369H59.2175Z" fill="#8D93A1"/>
    <path fill-rule="evenodd" clip-rule="evenodd" d="M24.1234 24.2369V25.5706H25.4513V24.2369H24.1234Z" fill="#8D93A1"/>
    <path fill-rule="evenodd" clip-rule="evenodd" d="M37.2853 24.2369V25.5706H38.6085V24.2369H37.2853Z" fill="#8D93A1"/>
    <path fill-rule="evenodd" clip-rule="evenodd" d="M54.83 24.2369V25.5706H56.1532V24.2369H54.83Z" fill="#8D93A1"/>
    <path fill-rule="evenodd" clip-rule="evenodd" d="M19.7405 24.2369V25.5706H21.0638V24.2369H19.7405Z" fill="#8D93A1"/>
    <path fill-rule="evenodd" clip-rule="evenodd" d="M2.19141 33.0494V34.3784H3.51934V33.0494H2.19141Z" fill="#8D93A1"/>
    <path fill-rule="evenodd" clip-rule="evenodd" d="M46.0554 24.2369V25.5706H47.3833V24.2369H46.0554Z" fill="#8D93A1"/>
    <path fill-rule="evenodd" clip-rule="evenodd" d="M63.6046 24.2369V25.5706H64.9279V24.2369H63.6046Z" fill="#8D93A1"/>
    <path fill-rule="evenodd" clip-rule="evenodd" d="M28.5109 24.2369V25.5706H29.8387V24.2369H28.5109Z" fill="#8D93A1"/>
    <path fill-rule="evenodd" clip-rule="evenodd" d="M65.7961 11.0229V12.3519H67.1193V11.0229H65.7961Z" fill="#8D93A1"/>
    <path fill-rule="evenodd" clip-rule="evenodd" d="M65.7961 4.41589V5.74484H67.1193V4.41589H65.7961Z" fill="#8D93A1"/>
    <path fill-rule="evenodd" clip-rule="evenodd" d="M48.2514 35.255V36.5839H49.5746V35.255H48.2514Z" fill="#8D93A1"/>
    <path fill-rule="evenodd" clip-rule="evenodd" d="M39.4767 35.255V36.5839H40.8047V35.255H39.4767Z" fill="#8D93A1"/>
    <path fill-rule="evenodd" clip-rule="evenodd" d="M74.5708 35.255V36.5839H75.894V35.255H74.5708Z" fill="#8D93A1"/>
    <path fill-rule="evenodd" clip-rule="evenodd" d="M74.5708 11.0229V12.3519H75.894V11.0229H74.5708Z" fill="#8D93A1"/>
    <path fill-rule="evenodd" clip-rule="evenodd" d="M57.0215 35.255V36.5839H58.3494V35.255H57.0215Z" fill="#8D93A1"/>
    <path fill-rule="evenodd" clip-rule="evenodd" d="M57.0215 11.0229V12.3519H58.3494V11.0229H57.0215Z" fill="#8D93A1"/>
    <path fill-rule="evenodd" clip-rule="evenodd" d="M57.0215 8.82214V10.1511H58.3494V8.82214H57.0215Z" fill="#8D93A1"/>
    <path fill-rule="evenodd" clip-rule="evenodd" d="M35.0892 35.255V36.5839H36.4172V35.255H35.0892Z" fill="#8D93A1"/>
    <path fill-rule="evenodd" clip-rule="evenodd" d="M70.1835 11.0229V12.3519H71.5068V11.0229H70.1835Z" fill="#8D93A1"/>
    <path fill-rule="evenodd" clip-rule="evenodd" d="M70.1835 4.41589V5.74484H71.5068V4.41589H70.1835Z" fill="#8D93A1"/>
    <path fill-rule="evenodd" clip-rule="evenodd" d="M74.5708 4.41589V5.74484H75.894V4.41589H74.5708Z" fill="#8D93A1"/>
    <path fill-rule="evenodd" clip-rule="evenodd" d="M52.6388 35.255V36.5839H53.962V35.255H52.6388Z" fill="#8D93A1"/>
    <path fill-rule="evenodd" clip-rule="evenodd" d="M43.8641 35.255V36.5839H45.1874V35.255H43.8641Z" fill="#8D93A1"/>
    <path fill-rule="evenodd" clip-rule="evenodd" d="M8.77472 35.255V36.5839H10.0979V35.255H8.77472Z" fill="#8D93A1"/>
    <path fill-rule="evenodd" clip-rule="evenodd" d="M61.4087 35.255V36.5839H62.7367V35.255H61.4087Z" fill="#8D93A1"/>
    <path fill-rule="evenodd" clip-rule="evenodd" d="M30.7066 17.63V18.9637H32.0299V17.63H30.7066Z" fill="#8D93A1"/>
    <path fill-rule="evenodd" clip-rule="evenodd" d="M65.7961 17.63V18.9637H67.1193V17.63H65.7961Z" fill="#8D93A1"/>
    <path fill-rule="evenodd" clip-rule="evenodd" d="M48.2514 17.63V18.9637H49.5746V17.63H48.2514Z" fill="#8D93A1"/>
    <path fill-rule="evenodd" clip-rule="evenodd" d="M39.4767 17.63V18.9637H40.8047V17.63H39.4767Z" fill="#8D93A1"/>
    <path fill-rule="evenodd" clip-rule="evenodd" d="M74.5708 17.63V18.9637H75.894V17.63H74.5708Z" fill="#8D93A1"/>
    <path fill-rule="evenodd" clip-rule="evenodd" d="M57.0215 17.63V18.9637H58.3494V17.63H57.0215Z" fill="#8D93A1"/>
    <path fill-rule="evenodd" clip-rule="evenodd" d="M57.0215 15.4293V16.7582H58.3494V15.4293H57.0215Z" fill="#8D93A1"/>
    <path fill-rule="evenodd" clip-rule="evenodd" d="M21.932 17.63V18.9637H23.2552V17.63H21.932Z" fill="#8D93A1"/>
    <path fill-rule="evenodd" clip-rule="evenodd" d="M35.0892 17.63V18.9637H36.4172V17.63H35.0892Z" fill="#8D93A1"/>
    <path fill-rule="evenodd" clip-rule="evenodd" d="M70.1835 17.63V18.9637H71.5068V17.63H70.1835Z" fill="#8D93A1"/>
    <path fill-rule="evenodd" clip-rule="evenodd" d="M72.3748 17.63V18.9637H73.7027V17.63H72.3748Z" fill="#8D93A1"/>
    <path fill-rule="evenodd" clip-rule="evenodd" d="M52.6388 17.63V18.9637H53.962V17.63H52.6388Z" fill="#8D93A1"/>
    <path fill-rule="evenodd" clip-rule="evenodd" d="M17.5447 17.63V18.9637H18.8727V17.63H17.5447Z" fill="#8D93A1"/>
    <path fill-rule="evenodd" clip-rule="evenodd" d="M43.8641 17.63V18.9637H45.1874V17.63H43.8641Z" fill="#8D93A1"/>
    <path fill-rule="evenodd" clip-rule="evenodd" d="M43.8641 13.2238V14.5574H45.1874V13.2238H43.8641Z" fill="#8D93A1"/>
    <path fill-rule="evenodd" clip-rule="evenodd" d="M43.8641 8.82214V10.1511H45.1874V8.82214H43.8641Z" fill="#8D93A1"/>
    <path fill-rule="evenodd" clip-rule="evenodd" d="M61.4087 17.63V18.9637H62.7367V17.63H61.4087Z" fill="#8D93A1"/>
    <path fill-rule="evenodd" clip-rule="evenodd" d="M26.3194 17.63V18.9637H27.6426V17.63H26.3194Z" fill="#8D93A1"/>
    <path fill-rule="evenodd" clip-rule="evenodd" d="M32.8981 35.255V36.5839H34.2214V35.255H32.8981Z" fill="#8D93A1"/>
    <path fill-rule="evenodd" clip-rule="evenodd" d="M67.9921 11.0229V12.3519H69.3154V11.0229H67.9921Z" fill="#8D93A1"/>
    <path fill-rule="evenodd" clip-rule="evenodd" d="M67.9921 4.41589V5.74484H69.3154V4.41589H67.9921Z" fill="#8D93A1"/>
    <path fill-rule="evenodd" clip-rule="evenodd" d="M72.3748 4.41589V5.74484H73.7027V4.41589H72.3748Z" fill="#8D93A1"/>
    <path fill-rule="evenodd" clip-rule="evenodd" d="M50.4427 35.255V36.5839H51.7707V35.255H50.4427Z" fill="#8D93A1"/>
    <path fill-rule="evenodd" clip-rule="evenodd" d="M41.6727 35.255V36.5839H42.9959V35.255H41.6727Z" fill="#8D93A1"/>
    <path fill-rule="evenodd" clip-rule="evenodd" d="M59.2175 35.255V36.5839H60.5407V35.255H59.2175Z" fill="#8D93A1"/>
    <path fill-rule="evenodd" clip-rule="evenodd" d="M24.1234 35.255V36.5839H25.4513V35.255H24.1234Z" fill="#8D93A1"/>
    <path fill-rule="evenodd" clip-rule="evenodd" d="M37.2853 35.255V36.5839H38.6085V35.255H37.2853Z" fill="#8D93A1"/>
    <path fill-rule="evenodd" clip-rule="evenodd" d="M72.3748 35.255V36.5839H73.7027V35.255H72.3748Z" fill="#8D93A1"/>
    <path fill-rule="evenodd" clip-rule="evenodd" d="M72.3748 11.0229V12.3519H73.7027V11.0229H72.3748Z" fill="#8D93A1"/>
    <path fill-rule="evenodd" clip-rule="evenodd" d="M54.83 35.255V36.5839H56.1532V35.255H54.83Z" fill="#8D93A1"/>
    <path fill-rule="evenodd" clip-rule="evenodd" d="M46.0554 35.255V36.5839H47.3833V35.255H46.0554Z" fill="#8D93A1"/>
    <path fill-rule="evenodd" clip-rule="evenodd" d="M46.0554 8.82214V10.1511H47.3833V8.82214H46.0554Z" fill="#8D93A1"/>
    <path fill-rule="evenodd" clip-rule="evenodd" d="M10.9661 35.255V36.5839H12.2893V35.255H10.9661Z" fill="#8D93A1"/>
    <path fill-rule="evenodd" clip-rule="evenodd" d="M63.6046 11.0229V12.3519H64.9279V11.0229H63.6046Z" fill="#8D93A1"/>
    <path fill-rule="evenodd" clip-rule="evenodd" d="M32.8981 17.63V18.9637H34.2214V17.63H32.8981Z" fill="#8D93A1"/>
    <path fill-rule="evenodd" clip-rule="evenodd" d="M32.8981 13.2238V14.5574H34.2214V13.2238H32.8981Z" fill="#8D93A1"/>
    <path fill-rule="evenodd" clip-rule="evenodd" d="M67.9921 17.63V18.9637H69.3154V17.63H67.9921Z" fill="#8D93A1"/>
    <path fill-rule="evenodd" clip-rule="evenodd" d="M50.4427 17.63V18.9637H51.7707V17.63H50.4427Z" fill="#8D93A1"/>
    <path fill-rule="evenodd" clip-rule="evenodd" d="M50.4427 13.2238V14.5574H51.7707V13.2238H50.4427Z" fill="#8D93A1"/>
    <path fill-rule="evenodd" clip-rule="evenodd" d="M15.3533 17.63V18.9637H16.6765V17.63H15.3533Z" fill="#8D93A1"/>
    <path fill-rule="evenodd" clip-rule="evenodd" d="M41.6727 17.63V18.9637H42.9959V17.63H41.6727Z" fill="#8D93A1"/>
    <path fill-rule="evenodd" clip-rule="evenodd" d="M81.1494 19.8354V21.1644H82.4726V19.8354H81.1494Z" fill="#8D93A1"/>
    <path fill-rule="evenodd" clip-rule="evenodd" d="M59.2175 17.63V18.9637H60.5407V17.63H59.2175Z" fill="#8D93A1"/>
    <path fill-rule="evenodd" clip-rule="evenodd" d="M24.1234 17.63V18.9637H25.4513V17.63H24.1234Z" fill="#8D93A1"/>
    <path fill-rule="evenodd" clip-rule="evenodd" d="M8.77472 17.63V18.9637H10.0979V17.63H8.77472Z" fill="#8D93A1"/>
    <path fill-rule="evenodd" clip-rule="evenodd" d="M37.2853 17.63V18.9637H38.6085V17.63H37.2853Z" fill="#8D93A1"/>
    <path fill-rule="evenodd" clip-rule="evenodd" d="M54.83 17.63V18.9637H56.1532V17.63H54.83Z" fill="#8D93A1"/>
    <path fill-rule="evenodd" clip-rule="evenodd" d="M54.83 15.4293V16.7582H56.1532V15.4293H54.83Z" fill="#8D93A1"/>
    <path fill-rule="evenodd" clip-rule="evenodd" d="M19.7405 17.63V18.9637H21.0638V17.63H19.7405Z" fill="#8D93A1"/>
    <path fill-rule="evenodd" clip-rule="evenodd" d="M46.0554 17.63V18.9637H47.3833V17.63H46.0554Z" fill="#8D93A1"/>
    <path fill-rule="evenodd" clip-rule="evenodd" d="M63.6046 17.63V18.9637H64.9279V17.63H63.6046Z" fill="#8D93A1"/>
    <path fill-rule="evenodd" clip-rule="evenodd" d="M28.5109 17.63V18.9637H29.8387V17.63H28.5109Z" fill="#8D93A1"/>
    <path fill-rule="evenodd" clip-rule="evenodd" d="M13.1575 17.63V18.9637H14.4854V17.63H13.1575Z" fill="#8D93A1"/>
    <path fill-rule="evenodd" clip-rule="evenodd" d="M30.7066 26.4425V27.7714H32.0299V26.4425H30.7066Z" fill="#8D93A1"/>
    <path fill-rule="evenodd" clip-rule="evenodd" d="M65.7961 26.4425V27.7714H67.1193V26.4425H65.7961Z" fill="#8D93A1"/>
    <path fill-rule="evenodd" clip-rule="evenodd" d="M48.2514 26.4425V27.7714H49.5746V26.4425H48.2514Z" fill="#8D93A1"/>
    <path fill-rule="evenodd" clip-rule="evenodd" d="M13.1575 26.4425V27.7714H14.4854V26.4425H13.1575Z" fill="#8D93A1"/>
    <path fill-rule="evenodd" clip-rule="evenodd" d="M13.1575 35.255V36.5839H14.4854V35.255H13.1575Z" fill="#8D93A1"/>
    <path fill-rule="evenodd" clip-rule="evenodd" d="M39.4767 26.4425V27.7714H40.8047V26.4425H39.4767Z" fill="#8D93A1"/>
    <path fill-rule="evenodd" clip-rule="evenodd" d="M57.0215 26.4425V27.7714H58.3494V26.4425H57.0215Z" fill="#8D93A1"/>
    <path fill-rule="evenodd" clip-rule="evenodd" d="M21.932 26.4425V27.7714H23.2552V26.4425H21.932Z" fill="#8D93A1"/>
    <path fill-rule="evenodd" clip-rule="evenodd" d="M35.0892 26.4425V27.7714H36.4172V26.4425H35.0892Z" fill="#8D93A1"/>
    <path fill-rule="evenodd" clip-rule="evenodd" d="M52.6388 26.4425V27.7714H53.962V26.4425H52.6388Z" fill="#8D93A1"/>
    <path fill-rule="evenodd" clip-rule="evenodd" d="M17.5447 26.4425V27.7714H18.8727V26.4425H17.5447Z" fill="#8D93A1"/>
    <path fill-rule="evenodd" clip-rule="evenodd" d="M43.8641 26.4425V27.7714H45.1874V26.4425H43.8641Z" fill="#8D93A1"/>
    <path fill-rule="evenodd" clip-rule="evenodd" d="M61.4087 26.4425V27.7714H62.7367V26.4425H61.4087Z" fill="#8D93A1"/>
    <path fill-rule="evenodd" clip-rule="evenodd" d="M10.9661 26.4425V27.7714H12.2893V26.4425H10.9661Z" fill="#8D93A1"/>
    <path fill-rule="evenodd" clip-rule="evenodd" d="M26.3194 26.4425V27.7714H27.6426V26.4425H26.3194Z" fill="#8D93A1"/>
    <path fill-rule="evenodd" clip-rule="evenodd" d="M32.8981 26.4425V27.7714H34.2214V26.4425H32.8981Z" fill="#8D93A1"/>
    <path fill-rule="evenodd" clip-rule="evenodd" d="M67.9921 26.4425V27.7714H69.3154V26.4425H67.9921Z" fill="#8D93A1"/>
    <path fill-rule="evenodd" clip-rule="evenodd" d="M50.4427 26.4425V27.7714H51.7707V26.4425H50.4427Z" fill="#8D93A1"/>
    <path fill-rule="evenodd" clip-rule="evenodd" d="M15.3533 26.4425V27.7714H16.6765V26.4425H15.3533Z" fill="#8D93A1"/>
    <path fill-rule="evenodd" clip-rule="evenodd" d="M41.6727 26.4425V27.7714H42.9959V26.4425H41.6727Z" fill="#8D93A1"/>
    <path fill-rule="evenodd" clip-rule="evenodd" d="M59.2175 26.4425V27.7714H60.5407V26.4425H59.2175Z" fill="#8D93A1"/>
    <path fill-rule="evenodd" clip-rule="evenodd" d="M24.1234 26.4425V27.7714H25.4513V26.4425H24.1234Z" fill="#8D93A1"/>
    <path fill-rule="evenodd" clip-rule="evenodd" d="M37.2853 26.4425V27.7714H38.6085V26.4425H37.2853Z" fill="#8D93A1"/>
    <path fill-rule="evenodd" clip-rule="evenodd" d="M54.83 26.4425V27.7714H56.1532V26.4425H54.83Z" fill="#8D93A1"/>
    <path fill-rule="evenodd" clip-rule="evenodd" d="M19.7405 26.4425V27.7714H21.0638V26.4425H19.7405Z" fill="#8D93A1"/>
    <path fill-rule="evenodd" clip-rule="evenodd" d="M46.0554 26.4425V27.7714H47.3833V26.4425H46.0554Z" fill="#8D93A1"/>
    <path fill-rule="evenodd" clip-rule="evenodd" d="M63.6046 26.4425V27.7714H64.9279V26.4425H63.6046Z" fill="#8D93A1"/>
    <path fill-rule="evenodd" clip-rule="evenodd" d="M28.5109 26.4425V27.7714H29.8387V26.4425H28.5109Z" fill="#8D93A1"/>
    <path fill-rule="evenodd" clip-rule="evenodd" d="M30.7066 30.8488V32.1778H32.0299V30.8488H30.7066Z" fill="#8D93A1"/>
    <path fill-rule="evenodd" clip-rule="evenodd" d="M65.7961 30.8488V32.1778H67.1193V30.8488H65.7961Z" fill="#8D93A1"/>
    <path fill-rule="evenodd" clip-rule="evenodd" d="M48.2514 30.8488V32.1778H49.5746V30.8488H48.2514Z" fill="#8D93A1"/>
    <path fill-rule="evenodd" clip-rule="evenodd" d="M13.1575 30.8488V32.1778H14.4854V30.8488H13.1575Z" fill="#8D93A1"/>
    <path fill-rule="evenodd" clip-rule="evenodd" d="M39.4767 30.8488V32.1778H40.8047V30.8488H39.4767Z" fill="#8D93A1"/>
    <path fill-rule="evenodd" clip-rule="evenodd" d="M74.5708 30.8488V32.1778H75.894V30.8488H74.5708Z" fill="#8D93A1"/>
    <path fill-rule="evenodd" clip-rule="evenodd" d="M57.0215 30.8488V32.1778H58.3494V30.8488H57.0215Z" fill="#8D93A1"/>
    <path fill-rule="evenodd" clip-rule="evenodd" d="M21.932 30.8488V32.1778H23.2552V30.8488H21.932Z" fill="#8D93A1"/>
    <path fill-rule="evenodd" clip-rule="evenodd" d="M35.0892 30.8488V32.1778H36.4172V30.8488H35.0892Z" fill="#8D93A1"/>
    <path fill-rule="evenodd" clip-rule="evenodd" d="M70.1835 30.8488V32.1778H71.5068V30.8488H70.1835Z" fill="#8D93A1"/>
    <path fill-rule="evenodd" clip-rule="evenodd" d="M52.6388 30.8488V32.1778H53.962V30.8488H52.6388Z" fill="#8D93A1"/>
    <path fill-rule="evenodd" clip-rule="evenodd" d="M43.8641 30.8488V32.1778H45.1874V30.8488H43.8641Z" fill="#8D93A1"/>
    <path fill-rule="evenodd" clip-rule="evenodd" d="M8.77472 30.8488V32.1778H10.0979V30.8488H8.77472Z" fill="#8D93A1"/>
    <path fill-rule="evenodd" clip-rule="evenodd" d="M61.4087 30.8488V32.1778H62.7367V30.8488H61.4087Z" fill="#8D93A1"/>
    <path fill-rule="evenodd" clip-rule="evenodd" d="M26.3194 30.8488V32.1778H27.6426V30.8488H26.3194Z" fill="#8D93A1"/>
    <path fill-rule="evenodd" clip-rule="evenodd" d="M32.8981 30.8488V32.1778H34.2214V30.8488H32.8981Z" fill="#8D93A1"/>
    <path fill-rule="evenodd" clip-rule="evenodd" d="M67.9921 30.8488V32.1778H69.3154V30.8488H67.9921Z" fill="#8D93A1"/>
    <path fill-rule="evenodd" clip-rule="evenodd" d="M50.4427 30.8488V32.1778H51.7707V30.8488H50.4427Z" fill="#8D93A1"/>
    <path fill-rule="evenodd" clip-rule="evenodd" d="M15.3533 30.8488V32.1778H16.6765V30.8488H15.3533Z" fill="#8D93A1"/>
    <path fill-rule="evenodd" clip-rule="evenodd" d="M41.6727 30.8488V32.1778H42.9959V30.8488H41.6727Z" fill="#8D93A1"/>
    <path fill-rule="evenodd" clip-rule="evenodd" d="M76.7622 30.8488V32.1778H78.0855V30.8488H76.7622Z" fill="#8D93A1"/>
    <path fill-rule="evenodd" clip-rule="evenodd" d="M59.2175 30.8488V32.1778H60.5407V30.8488H59.2175Z" fill="#8D93A1"/>
    <path fill-rule="evenodd" clip-rule="evenodd" d="M24.1234 30.8488V32.1778H25.4513V30.8488H24.1234Z" fill="#8D93A1"/>
    <path fill-rule="evenodd" clip-rule="evenodd" d="M37.2853 30.8488V32.1778H38.6085V30.8488H37.2853Z" fill="#8D93A1"/>
    <path fill-rule="evenodd" clip-rule="evenodd" d="M72.3748 30.8488V32.1778H73.7027V30.8488H72.3748Z" fill="#8D93A1"/>
    <path fill-rule="evenodd" clip-rule="evenodd" d="M54.83 30.8488V32.1778H56.1532V30.8488H54.83Z" fill="#8D93A1"/>
    <path fill-rule="evenodd" clip-rule="evenodd" d="M46.0554 30.8488V32.1778H47.3833V30.8488H46.0554Z" fill="#8D93A1"/>
    <path fill-rule="evenodd" clip-rule="evenodd" d="M10.9661 30.8488V32.1778H12.2893V30.8488H10.9661Z" fill="#8D93A1"/>
    <path fill-rule="evenodd" clip-rule="evenodd" d="M10.9661 37.4557V38.7847H12.2893V37.4557H10.9661Z" fill="#8D93A1"/>
    <path fill-rule="evenodd" clip-rule="evenodd" d="M63.6046 30.8488V32.1778H64.9279V30.8488H63.6046Z" fill="#8D93A1"/>
    <path fill-rule="evenodd" clip-rule="evenodd" d="M28.5109 30.8488V32.1778H29.8387V30.8488H28.5109Z" fill="#8D93A1"/>
    <path fill-rule="evenodd" clip-rule="evenodd" d="M30.7066 22.0363V23.3652H32.0299V22.0363H30.7066Z" fill="#8D93A1"/>
    <path fill-rule="evenodd" clip-rule="evenodd" d="M65.7961 22.0363V23.3652H67.1193V22.0363H65.7961Z" fill="#8D93A1"/>
    <path fill-rule="evenodd" clip-rule="evenodd" d="M48.2514 22.0363V23.3652H49.5746V22.0363H48.2514Z" fill="#8D93A1"/>
    <path fill-rule="evenodd" clip-rule="evenodd" d="M13.1575 22.0363V23.3652H14.4854V22.0363H13.1575Z" fill="#8D93A1"/>
    <path fill-rule="evenodd" clip-rule="evenodd" d="M39.4767 22.0363V23.3652H40.8047V22.0363H39.4767Z" fill="#8D93A1"/>
    <path fill-rule="evenodd" clip-rule="evenodd" d="M57.0215 22.0363V23.3652H58.3494V22.0363H57.0215Z" fill="#8D93A1"/>
    <path fill-rule="evenodd" clip-rule="evenodd" d="M21.932 22.0363V23.3652H23.2552V22.0363H21.932Z" fill="#8D93A1"/>
    <path fill-rule="evenodd" clip-rule="evenodd" d="M4.38745 30.8488V32.1778H5.7107V30.8488H4.38745Z" fill="#8D93A1"/>
    <path fill-rule="evenodd" clip-rule="evenodd" d="M35.0892 22.0363V23.3652H36.4172V22.0363H35.0892Z" fill="#8D93A1"/>
    <path fill-rule="evenodd" clip-rule="evenodd" d="M52.6388 22.0363V23.3652H53.962V22.0363H52.6388Z" fill="#8D93A1"/>
    <path fill-rule="evenodd" clip-rule="evenodd" d="M17.5447 22.0363V23.3652H18.8727V22.0363H17.5447Z" fill="#8D93A1"/>
    <path fill-rule="evenodd" clip-rule="evenodd" d="M0 30.8488V32.1778H1.32325V30.8488H0Z" fill="#8D93A1"/>
    <path fill-rule="evenodd" clip-rule="evenodd" d="M43.8641 22.0363V23.3652H45.1874V22.0363H43.8641Z" fill="#8D93A1"/>
    <path fill-rule="evenodd" clip-rule="evenodd" d="M61.4087 22.0363V23.3652H62.7367V22.0363H61.4087Z" fill="#8D93A1"/>
    <path fill-rule="evenodd" clip-rule="evenodd" d="M26.3194 22.0363V23.3652H27.6426V22.0363H26.3194Z" fill="#8D93A1"/>
    <path fill-rule="evenodd" clip-rule="evenodd" d="M32.8981 22.0363V23.3652H34.2214V22.0363H32.8981Z" fill="#8D93A1"/>
    <path fill-rule="evenodd" clip-rule="evenodd" d="M67.9921 22.0363V23.3652H69.3154V22.0363H67.9921Z" fill="#8D93A1"/>
    <path fill-rule="evenodd" clip-rule="evenodd" d="M50.4427 22.0363V23.3652H51.7707V22.0363H50.4427Z" fill="#8D93A1"/>
    <path fill-rule="evenodd" clip-rule="evenodd" d="M15.3533 22.0363V23.3652H16.6765V22.0363H15.3533Z" fill="#8D93A1"/>
    <path fill-rule="evenodd" clip-rule="evenodd" d="M41.6727 22.0363V23.3652H42.9959V22.0363H41.6727Z" fill="#8D93A1"/>
    <path fill-rule="evenodd" clip-rule="evenodd" d="M59.2175 22.0363V23.3652H60.5407V22.0363H59.2175Z" fill="#8D93A1"/>
    <path fill-rule="evenodd" clip-rule="evenodd" d="M24.1234 22.0363V23.3652H25.4513V22.0363H24.1234Z" fill="#8D93A1"/>
    <path fill-rule="evenodd" clip-rule="evenodd" d="M37.2853 22.0363V23.3652H38.6085V22.0363H37.2853Z" fill="#8D93A1"/>
    <path fill-rule="evenodd" clip-rule="evenodd" d="M54.83 22.0363V23.3652H56.1532V22.0363H54.83Z" fill="#8D93A1"/>
    <path fill-rule="evenodd" clip-rule="evenodd" d="M19.7405 22.0363V23.3652H21.0638V22.0363H19.7405Z" fill="#8D93A1"/>
    <path fill-rule="evenodd" clip-rule="evenodd" d="M2.19141 30.8488V32.1778H3.51934V30.8488H2.19141Z" fill="#8D93A1"/>
    <path fill-rule="evenodd" clip-rule="evenodd" d="M46.0554 22.0363V23.3652H47.3833V22.0363H46.0554Z" fill="#8D93A1"/>
    <path fill-rule="evenodd" clip-rule="evenodd" d="M63.6046 22.0363V23.3652H64.9279V22.0363H63.6046Z" fill="#8D93A1"/>
    <path fill-rule="evenodd" clip-rule="evenodd" d="M28.5109 22.0363V23.3652H29.8387V22.0363H28.5109Z" fill="#8D93A1"/>
    <path d="M96.3569 17.2632V6.53845H102.557V7.74687H97.7081V17.2632H96.3569Z" fill="#8D93A1"/>
    <path d="M105.942 17.2632V6.53845H107.293V15.375L113.463 6.53845H114.724V17.2632H113.373V8.59276L107.278 17.2632H105.942Z" fill="#8D93A1"/>
    <path d="M118.307 11.8253C118.307 11.1707 118.417 10.5313 118.637 9.90692C118.867 9.2725 119.198 8.6985 119.628 8.18492C120.068 7.66127 120.604 7.2484 121.234 6.94629C121.865 6.63412 122.581 6.47803 123.381 6.47803C124.332 6.47803 125.148 6.69957 125.828 7.14266C126.509 7.57568 127.014 8.13457 127.345 8.81934L126.279 9.51419C126.068 9.06103 125.798 8.70354 125.468 8.44171C125.148 8.16982 124.797 7.97848 124.417 7.86771C124.047 7.75694 123.681 7.70155 123.321 7.70155C122.731 7.70155 122.205 7.8224 121.745 8.06408C121.294 8.30576 120.914 8.62801 120.604 9.03082C120.294 9.43362 120.058 9.88678 119.898 10.3903C119.748 10.8837 119.673 11.3822 119.673 11.8857C119.673 12.4396 119.763 12.9733 119.943 13.4869C120.133 14.0004 120.394 14.4536 120.724 14.8463C121.054 15.2391 121.445 15.5513 121.895 15.7829C122.345 16.0145 122.836 16.1303 123.366 16.1303C123.736 16.1303 124.117 16.0648 124.507 15.9339C124.897 15.803 125.263 15.6016 125.603 15.3297C125.943 15.0477 126.214 14.6852 126.414 14.2421L127.54 14.8614C127.32 15.3952 126.979 15.8483 126.519 16.2209C126.058 16.5935 125.543 16.8755 124.973 17.0668C124.412 17.2582 123.857 17.3538 123.306 17.3538C122.576 17.3538 121.905 17.1977 121.294 16.8856C120.684 16.5633 120.153 16.1404 119.703 15.6167C119.263 15.083 118.917 14.4889 118.667 13.8343C118.427 13.1697 118.307 12.5 118.307 11.8253Z" fill="#8D93A1"/>
    <path d="M104.043 25.7293H100.365V35.2456H99.0142V25.7293H95.3361V24.5209H104.043V25.7293Z" fill="#8D93A1"/>
    <path d="M111.231 35.3212C110.481 35.3212 109.8 35.1701 109.189 34.868C108.579 34.5659 108.048 34.1581 107.598 33.6445C107.158 33.1208 106.817 32.5368 106.577 31.8923C106.337 31.2377 106.217 30.568 106.217 29.8833C106.217 29.1683 106.342 28.4886 106.592 27.8441C106.852 27.1895 107.208 26.6105 107.658 26.107C108.119 25.5934 108.654 25.1906 109.265 24.8985C109.875 24.5964 110.541 24.4454 111.261 24.4454C112.012 24.4454 112.692 24.6015 113.303 24.9136C113.913 25.2258 114.439 25.6437 114.879 26.1674C115.32 26.691 115.66 27.2751 115.9 27.9196C116.14 28.5641 116.26 29.2237 116.26 29.8984C116.26 30.6134 116.135 31.2981 115.885 31.9527C115.635 32.5972 115.28 33.1762 114.819 33.6898C114.369 34.1933 113.838 34.5911 113.228 34.8831C112.617 35.1752 111.952 35.3212 111.231 35.3212ZM107.583 29.8833C107.583 30.4271 107.668 30.9557 107.838 31.4693C108.018 31.9728 108.269 32.421 108.589 32.8137C108.909 33.2064 109.295 33.5186 109.745 33.7502C110.195 33.9818 110.696 34.0976 111.246 34.0976C111.817 34.0976 112.327 33.9768 112.777 33.7351C113.228 33.4934 113.608 33.1712 113.918 32.7684C114.239 32.3656 114.479 31.9124 114.639 31.4089C114.809 30.9054 114.894 30.3969 114.894 29.8833C114.894 29.3395 114.804 28.8158 114.624 28.3123C114.454 27.8088 114.204 27.3607 113.873 26.968C113.553 26.5652 113.168 26.253 112.717 26.0314C112.277 25.7998 111.787 25.684 111.246 25.684C110.676 25.684 110.165 25.8049 109.715 26.0465C109.265 26.2782 108.879 26.5954 108.559 26.9982C108.249 27.401 108.008 27.8541 107.838 28.3576C107.668 28.8511 107.583 29.3596 107.583 29.8833Z" fill="#8D93A1"/>
    <path d="M119.789 35.2456V24.5209H124.233C124.703 24.5209 125.134 24.6216 125.524 24.823C125.914 25.0143 126.255 25.2762 126.545 25.6085C126.835 25.9307 127.06 26.2983 127.22 26.7112C127.381 27.114 127.461 27.5269 127.461 27.9498C127.461 28.5339 127.331 29.0928 127.07 29.6265C126.81 30.1501 126.445 30.5781 125.974 30.9104C125.504 31.2327 124.954 31.3938 124.323 31.3938H121.14V35.2456H119.789ZM121.14 30.1854H124.248C124.618 30.1854 124.939 30.0847 125.209 29.8833C125.489 29.6819 125.704 29.41 125.854 29.0676C126.014 28.7252 126.095 28.3526 126.095 27.9498C126.095 27.5269 126.004 27.1492 125.824 26.8169C125.644 26.4745 125.409 26.2077 125.119 26.0163C124.828 25.825 124.508 25.7293 124.158 25.7293H121.14V30.1854Z" fill="#8D93A1"/>
    <path d="M130.794 35.2456V24.5209H136.994V25.7293H132.145V35.2456H130.794Z" fill="#8D93A1"/>
    <path d="M140.379 35.2456V24.5209H141.73V33.3575L147.9 24.5209H149.161V35.2456H147.81V26.5752L141.715 35.2456H140.379Z" fill="#8D93A1"/>
</svg>
