<svg width="24" height="24" viewBox="0 0 24 24" fill="none" xmlns="http://www.w3.org/2000/svg">
    <path d="M3.48 10.6843C3.75667 10.3042 4.19667 10.062 4.69 10.062L4.80333 10.0654H4.8C5.72333 10.0654 6.44333 10.7179 6.44333 11.8011V14.8688H4.96667V12.3258C4.96667 11.7741 4.68333 11.468 4.23333 11.468C3.82333 11.468 3.48 11.754 3.48 12.3561V14.8688H2V8H3.48V10.6843ZM12.0933 14.8722H10.6733V14.3642C10.38 14.7511 9.92333 14.9966 9.41 14.9966H9.33667H9.34C8.10333 14.9966 7.18667 13.9101 7.18667 12.5276C7.18667 11.1451 8.10333 10.0687 9.34667 10.0687H9.41C9.92333 10.0687 10.3833 10.3143 10.6733 10.6977L10.6767 10.7011V10.1965H12.0967V14.8722H12.0933ZM8.68667 12.531C8.68667 13.086 9.13 13.5334 9.68 13.5334C10.23 13.5334 10.6733 13.086 10.6733 12.531C10.6733 11.976 10.23 11.5286 9.68 11.5286C9.13 11.5286 8.68667 11.976 8.68667 12.531ZM18.0133 12.5276C18.0133 13.9068 17.0933 14.9966 15.8567 14.9966L15.7833 15C15.2733 15 14.82 14.7578 14.5333 14.3777L14.53 14.3743V14.8755H13.11V8H14.5867V10.6439C14.8767 10.2907 15.3133 10.0687 15.7967 10.0687H15.8667H15.8633C17.0933 10.0687 18.0133 11.1485 18.0133 12.5276ZM14.5167 12.5276C14.5167 13.0827 14.96 13.53 15.51 13.53C16.06 13.53 16.5033 13.0827 16.5033 12.5276C16.5033 11.9726 16.06 11.5252 15.51 11.5252C14.96 11.5252 14.5167 11.9726 14.5167 12.5276ZM21.9867 10.1394L21.86 11.6261C21.64 11.5521 21.3867 11.505 21.12 11.5017H21.1167C21.0833 11.4983 21.0467 11.495 21.01 11.495C20.5967 11.495 20.26 11.8347 20.26 12.2518C20.26 12.2854 20.2633 12.3157 20.2667 12.3494V12.346V14.8755H18.7867V10.1999H20.2067V10.7381C20.45 10.3345 20.8833 10.0687 21.38 10.0687L21.4767 10.0721H21.4733H21.4767C21.66 10.0721 21.8333 10.099 22 10.1461L21.9867 10.1394Z" fill="black"/>
</svg>
