<svg width="24" height="24" viewBox="0 0 24 24" fill="none" xmlns="http://www.w3.org/2000/svg">
    <path fill-rule="evenodd" clip-rule="evenodd" d="M4.39493 4.21338V10.0503C5.28359 8.99073 6.34854 8.4569 7.58426 8.4569C8.22044 8.4569 8.79101 8.57786 9.30109 8.81958C9.81389 9.05888 10.1975 9.36659 10.4553 9.73992C10.7156 10.116 10.8918 10.5287 10.9862 10.9835C11.0812 11.4359 11.1285 12.1404 11.1285 13.0948V19.3365H8.36776V13.7153C8.36776 12.6006 8.31766 11.8932 8.21259 11.5934C8.10743 11.2912 7.92329 11.0544 7.65782 10.8783C7.39217 10.6996 7.06099 10.6101 6.66139 10.6101C6.20393 10.6101 5.79368 10.7258 5.43623 10.952C5.07355 11.1807 4.81052 11.5226 4.64488 11.98C4.47644 12.4376 4.39222 13.1132 4.39503 14.0072L4.39222 19.3366H1.63428V4.21338H4.39493ZM15.2669 4.21338V10.0503C16.1552 8.99073 17.2203 8.4569 18.4558 8.4569C19.0896 8.4569 19.6626 8.57786 20.1756 8.81958C20.6855 9.05888 21.0694 9.36659 21.3269 9.73992C21.5872 10.116 21.7634 10.5287 21.8581 10.9835C21.9528 11.4359 22.0002 12.1404 22.0002 13.0948V19.3365H19.2419V13.7153C19.2419 12.6006 19.1896 11.8932 19.0842 11.5934C18.979 11.2912 18.7951 11.0544 18.5294 10.8783C18.2664 10.6996 17.9325 10.6101 17.533 10.6101C17.0754 10.6101 16.6653 10.7258 16.3077 10.952C15.9476 11.1807 15.6847 11.5226 15.5163 11.98C15.3506 12.4376 15.2667 13.1132 15.2667 14.0072V19.3366H12.5086V4.21338H15.2668H15.2669Z" fill="black"/>
</svg>
