<svg width="160" height="26" viewBox="0 0 160 26" fill="none" xmlns="http://www.w3.org/2000/svg">
    <g clip-path="url(#clip0_2503_8353)">
        <path d="M41.5166 8.62892C40.603 7.90468 39.4518 7.52669 38.275 7.56454H33.6333V19.8008H36.5583V15.6652H39.0583C39.3244 15.6663 39.5899 15.6391 39.85 15.5839H40C40.8925 15.3136 41.6537 14.7361 42.1416 13.9589C42.6129 13.2905 42.8577 12.4949 42.8416 11.6839C42.8794 11.1093 42.7794 10.5341 42.5494 10.0038C42.3194 9.47348 41.9658 9.00274 41.5166 8.62892ZM39.85 11.6189C39.8662 11.8125 39.8362 12.0071 39.7625 12.1875C39.6888 12.3679 39.5733 12.5293 39.425 12.6589C39.0293 12.9319 38.5506 13.0664 38.0666 13.0408H36.55V10.1808H38.1C38.5834 10.1484 39.0626 10.2869 39.45 10.5708C39.6014 10.7005 39.7201 10.8626 39.7967 11.0444C39.8733 11.2262 39.9058 11.4228 39.8916 11.6189H39.85ZM146.167 8.62892C145.25 7.90477 144.096 7.52692 142.917 7.56454H138.275V19.8008H141.2V15.6652H143.7C143.98 15.6693 144.26 15.6421 144.533 15.5839H144.692C145.581 15.3113 146.339 14.734 146.825 13.9589C147.296 13.2905 147.541 12.4949 147.525 11.6839C147.557 11.1068 147.452 10.5303 147.216 10C146.98 9.46975 146.621 9.00031 146.167 8.62892ZM144.5 11.6189C144.516 11.8133 144.486 12.0087 144.411 12.1893C144.335 12.37 144.217 12.5309 144.067 12.6589C143.675 12.933 143.198 13.0678 142.717 13.0408H141.167V10.1808H142.717C143.198 10.1475 143.675 10.2861 144.058 10.5708C144.211 10.6993 144.331 10.8612 144.408 11.0433C144.485 11.2254 144.516 11.4227 144.5 11.6189ZM57.7 8.93767C56.4817 7.773 54.8436 7.12061 53.1375 7.12061C51.4313 7.12061 49.7932 7.773 48.575 8.93767C47.4065 10.1678 46.7574 11.7826 46.7574 13.4592C46.7574 15.1358 47.4065 16.7507 48.575 17.9808C49.8043 19.1404 51.4478 19.7887 53.1583 19.7887C54.8688 19.7887 56.5123 19.1404 57.7416 17.9808C58.9065 16.7489 59.5532 15.1348 59.5532 13.4592C59.5532 11.7837 58.9065 10.1695 57.7416 8.93767H57.7ZM55.5833 16.0958C55.2629 16.4088 54.8823 16.6571 54.4633 16.8265C54.0443 16.9959 53.5952 17.0831 53.1416 17.0831C52.6881 17.0831 52.2389 16.9959 51.82 16.8265C51.401 16.6571 51.0204 16.4088 50.7 16.0958C50.0819 15.3586 49.7443 14.4357 49.7443 13.4836C49.7443 12.5315 50.0819 11.6086 50.7 10.8714C51.0155 10.5565 51.3918 10.3055 51.8072 10.133C52.2226 9.96037 52.6689 9.86958 53.1205 9.86581C53.572 9.86203 54.0198 9.94535 54.4382 10.111C54.8566 10.2766 55.2373 10.5212 55.5583 10.8308V10.8714C56.1808 11.6066 56.5213 12.5302 56.5213 13.4836C56.5213 14.437 56.1808 15.3606 55.5583 16.0958H55.5833ZM132.45 8.93767C131.232 7.77544 129.596 7.12459 127.892 7.12459C126.188 7.12459 124.551 7.77544 123.333 8.93767C122.165 10.1678 121.516 11.7826 121.516 13.4592C121.516 15.1358 122.165 16.7507 123.333 17.9808C124.562 19.1423 126.206 19.7919 127.917 19.7919C129.628 19.7919 131.272 19.1423 132.5 17.9808C133.668 16.7507 134.318 15.1358 134.318 13.4592C134.318 11.7826 133.668 10.1678 132.5 8.93767H132.45ZM130.333 16.0633C130.014 16.376 129.634 16.6242 129.215 16.7935C128.797 16.9628 128.349 17.0499 127.896 17.0499C127.443 17.0499 126.994 16.9628 126.576 16.7935C126.158 16.6242 125.778 16.376 125.458 16.0633C124.84 15.3261 124.503 14.4032 124.503 13.4511C124.503 12.499 124.84 11.5761 125.458 10.8389C125.774 10.524 126.15 10.273 126.566 10.1005C126.981 9.92787 127.427 9.83708 127.879 9.83331C128.33 9.82953 128.778 9.91285 129.197 10.0785C129.615 10.2441 129.996 10.4887 130.317 10.7983L130.358 10.8389C130.988 11.5707 131.334 12.4956 131.334 13.4511C131.334 14.4066 130.988 15.3315 130.358 16.0633H130.333ZM159.1 7.56454H151.392V19.8008H154.333V10.2052H158.208L158.35 9.99392L159.508 8.29579L160 7.56454H159.1ZM118.425 7.56454H108.117V10.2052H112.042V19.8008H115V10.2052H118.925V7.56454H118.425ZM72.5 16.6077L72.225 16.4777L71.9833 16.6645C71.4064 17.0874 70.6959 17.3001 69.975 17.2658C69.4823 17.2878 68.9905 17.2088 68.5311 17.0338C68.0718 16.8589 67.6552 16.5919 67.3083 16.2502C66.9608 15.8904 66.6911 15.4662 66.515 15.0029C66.3389 14.5395 66.2601 14.0463 66.2833 13.5527C66.2597 13.0663 66.3385 12.5804 66.5147 12.1249C66.691 11.6694 66.9611 11.2538 67.3083 10.9039C67.653 10.5667 68.0659 10.3031 68.5206 10.1297C68.9754 9.95623 69.4621 9.8768 69.95 9.89642C70.3819 9.90187 70.8078 9.996 71.2 10.1727C71.6297 10.3628 72.0132 10.6397 72.325 10.9852L72.6166 11.3264L72.975 11.0583L74.3166 10.0752L74.725 9.77454L74.4 9.40079C73.8662 8.74372 73.1856 8.21409 72.4101 7.85223C71.6346 7.49037 70.7847 7.30583 69.925 7.31267C69.0539 7.30657 68.1893 7.45809 67.375 7.75954C66.5927 8.04652 65.8803 8.48926 65.2833 9.05954C64.672 9.6272 64.1943 10.3175 63.8833 11.0827C63.5637 11.8573 63.4023 12.6853 63.4083 13.5202C63.4055 14.3533 63.5609 15.1797 63.8666 15.9577C64.1694 16.7138 64.6226 17.4041 65.2 17.9889C65.7903 18.5654 66.5008 19.0115 67.2833 19.297C68.1276 19.593 69.0195 19.7389 69.9166 19.7277C70.6499 19.7616 71.3829 19.6542 72.0735 19.4116C72.7642 19.169 73.399 18.796 73.9416 18.3139C74.045 18.2196 74.1424 18.1192 74.2333 18.0133L74.6416 17.5502L74.075 17.282L72.5 16.6077ZM89.45 11.0908C89.1307 10.3339 88.6553 9.64906 88.0532 9.0788C87.4511 8.50854 86.7352 8.06503 85.95 7.77579C85.1507 7.48229 84.304 7.33093 83.45 7.32892C82.5895 7.32244 81.7389 7.50797 80.9633 7.8713C80.1876 8.23464 79.5075 8.76615 78.975 9.42517L78.65 9.80704L79.0583 10.0995L80.3916 11.0827L80.7583 11.3508L81.05 11.0177C81.3593 10.6732 81.7399 10.3963 82.1666 10.2052C82.5583 10.0282 82.9849 9.93667 83.4166 9.93704C83.9055 9.91321 84.3941 9.98986 84.8506 10.162C85.3071 10.3342 85.7215 10.598 86.0666 10.9364L86.3333 11.2289C86.3484 11.2677 86.3744 11.3015 86.4083 11.3264C86.7187 11.7525 86.9266 12.2412 87.0166 12.7564H82.125L82.6333 13.4877L83.525 14.7795L83.6666 14.9827H86.8333C86.6641 15.4738 86.3786 15.9192 86 16.2827C85.654 16.6257 85.2376 16.8934 84.778 17.0685C84.3184 17.2435 83.8261 17.3218 83.3333 17.2983C82.6147 17.3349 81.906 17.1218 81.3333 16.697L81.0916 16.5102L80.8166 16.6402L79.225 17.3958L78.6583 17.6639L79.0666 18.127C79.1666 18.2408 79.2666 18.3302 79.3583 18.4277C79.9009 18.9097 80.5358 19.2827 81.2264 19.5253C81.9171 19.7679 82.65 19.8753 83.3833 19.8414C84.2805 19.8538 85.1727 19.708 86.0166 19.4108C86.7978 19.1275 87.5061 18.681 88.0916 18.1027C88.6743 17.5204 89.1306 16.8295 89.4333 16.0714C89.739 15.2934 89.8944 14.467 89.8916 13.6339C89.9166 12.7662 89.7665 11.9021 89.45 11.0908ZM105.25 19.1589L100.483 7.87329L100.367 7.58079H97.6416L97.525 7.87329L92.7916 19.1589L92.5166 19.8089H95.85L95.9666 19.5083L99.0416 12.0902L102.092 19.5002L102.217 19.8008H105.55L105.25 19.1589Z" fill="black"/>
        <path d="M12.0083 14.292H0C0.0816144 15.1408 0.251943 15.9794 0.508333 16.7945H7.625L2.99167 21.312C3.53322 21.9617 4.14199 22.5552 4.80833 23.0832L9.44167 18.5657V25.5045C10.2777 25.7545 11.1377 25.9205 12.0083 26.0001V14.292ZM26.5917 14.292H14.5833V26.0001C15.454 25.9205 16.314 25.7545 17.15 25.5045V16.7945H23.3333C22.8284 18.0662 22.0756 19.2305 21.1167 20.2232V23.5626C23.4712 21.8921 25.2031 19.5189 26.05 16.8026V16.7538C26.1 16.5995 26.1417 16.437 26.1833 16.2745C26.1862 16.2312 26.1862 16.1878 26.1833 16.1445C26.2333 15.9657 26.2667 15.7951 26.3083 15.6245V15.4782C26.3083 15.332 26.3667 15.1857 26.3917 15.0313C26.3881 14.9881 26.3881 14.9446 26.3917 14.9013C26.3917 14.7632 26.4333 14.6251 26.45 14.487C26.4911 14.418 26.5386 14.3527 26.5917 14.292ZM13.3333 9.84655e-05C9.99158 -0.0125758 6.76678 1.19871 4.29749 3.3941C1.8282 5.58949 0.294469 8.60891 0 11.8545H9.08333L10.5167 9.3601H3.19167C3.41522 8.75985 3.69414 8.1806 4.025 7.62947H11.525L12.9583 5.12697H6.175C8.14092 3.43449 10.6732 2.50044 13.2958 2.50044C15.9185 2.50044 18.4508 3.43449 20.4167 5.12697H13.65L15.0833 7.62947H22.5833C22.914 8.18073 23.1929 8.75995 23.4167 9.3601H16.0833L17.5 11.8545H26.5833C26.2901 8.62289 24.7682 5.61498 22.3166 3.42156C19.8649 1.22815 16.6607 0.00775372 13.3333 9.84655e-05Z" fill="#0450F2"/>
    </g>
    <defs>
        <clipPath id="clip0_2503_8353">
            <rect width="160" height="26" fill="white"/>
        </clipPath>
    </defs>
</svg>
