<svg width="24" height="24" viewBox="0 0 24 24" fill="none" xmlns="http://www.w3.org/2000/svg">
    <path d="M3.10353 10.968L13.8255 6.21897C14.8839 5.72428 18.4733 4.14125 18.4733 4.14125C18.4733 4.14125 20.1299 3.44868 19.9918 5.13064C19.9458 5.82322 19.5777 8.24722 19.2095 10.8691L18.0591 18.6358C18.0591 18.6358 17.9671 19.7736 17.1848 19.9715C16.4025 20.1694 15.114 19.2789 14.8839 19.0811C14.6999 18.9326 11.4326 16.7065 10.2362 15.6182C9.91407 15.3214 9.54594 14.7277 10.2822 14.0352C11.9388 12.4027 13.9176 10.3744 15.114 9.08821C15.6662 8.49457 16.2184 7.10942 13.9176 8.79139L7.42915 13.491C7.42915 13.491 6.69287 13.9857 5.31236 13.5405C3.93184 13.0952 2.32124 12.5016 2.32124 12.5016C2.32124 12.5016 1.21683 11.7596 3.10353 10.968Z" fill="black"/>
</svg>
