<svg width="24" height="24" viewBox="0 0 24 24" fill="none" xmlns="http://www.w3.org/2000/svg">
    <path d="M9.03168 18.5008C15.0694 18.5008 18.3718 13.4986 18.3718 9.16067C18.3718 9.01859 18.3718 8.87715 18.3622 8.73635C19.0047 8.27166 19.5593 7.69627 20 7.03715C19.4009 7.30263 18.7653 7.47672 18.1146 7.55363C18.7998 7.14338 19.3127 6.49813 19.5578 5.73795C18.9134 6.12032 18.2084 6.3898 17.4733 6.53475C16.9783 6.00847 16.3237 5.65998 15.6108 5.54321C14.8978 5.42644 14.1663 5.5479 13.5293 5.88879C12.8923 6.22968 12.3855 6.771 12.0872 7.42898C11.7888 8.08697 11.7157 8.82493 11.879 9.52867C10.5739 9.46324 9.29715 9.12408 8.13161 8.53321C6.96607 7.94234 5.93782 7.11296 5.1136 6.09891C4.69382 6.82158 4.56525 7.67706 4.75407 8.49119C4.94288 9.30532 5.43489 10.0169 6.12992 10.481C5.60751 10.4655 5.0965 10.3246 4.64 10.0701C4.64 10.0836 4.64 10.0976 4.64 10.1117C4.64021 10.8696 4.90257 11.6041 5.38258 12.1906C5.86259 12.7771 6.53071 13.1796 7.2736 13.3296C6.79032 13.4614 6.28325 13.4807 5.79136 13.386C6.00113 14.0382 6.40951 14.6086 6.95941 15.0174C7.5093 15.4261 8.17319 15.6528 8.85824 15.6656C7.69583 16.5792 6.25988 17.0751 4.78144 17.0736C4.52026 17.0731 4.25933 17.0573 4 17.0263C5.50121 17.9896 7.24794 18.5006 9.03168 18.4983" fill="black"/>
</svg>
