<svg width="24" height="24" viewBox="0 0 24 24" fill="none" xmlns="http://www.w3.org/2000/svg">
    <path fill-rule="evenodd" clip-rule="evenodd" d="M19.8313 17.1285H17.9747C17.2717 17.1285 17.0554 16.5698 15.7936 15.2902C14.694 14.2269 14.2073 14.0827 13.9369 14.0827C13.5584 14.0827 13.4502 14.1909 13.4502 14.7135V16.3896C13.4502 16.8401 13.306 17.1104 12.1163 17.1104C10.1515 17.1104 7.97039 15.921 6.4382 13.7043C4.1309 10.4603 3.5 8.02726 3.5 7.52264C3.5 7.25231 3.60815 7 4.1309 7H5.98756C6.45623 7 6.63648 7.21627 6.81674 7.72089C7.73606 10.3702 9.26825 12.695 9.89915 12.695C10.1335 12.695 10.2416 12.5869 10.2416 11.9921V9.25277C10.1695 7.99122 9.50258 7.88309 9.50258 7.43253C9.50258 7.21626 9.68284 7 9.97125 7H12.8914C13.288 7 13.4322 7.21626 13.4322 7.68484V11.3794C13.4322 11.7759 13.6125 11.9201 13.7206 11.9201C13.9549 11.9201 14.1532 11.7759 14.5858 11.3433C15.9198 9.84751 16.8751 7.54067 16.8751 7.54067C17.0013 7.27033 17.2176 7.01802 17.6863 7.01802H19.5429C20.1017 7.01802 20.2279 7.30638 20.1017 7.70286C19.8674 8.7842 17.5961 11.9921 17.5961 11.9921C17.3979 12.3165 17.3258 12.4607 17.5961 12.8212C17.7944 13.0915 18.4434 13.6502 18.876 14.1548C19.6691 15.0559 20.282 15.8129 20.4442 16.3355C20.6245 16.8581 20.3541 17.1285 19.8313 17.1285Z" fill="black"/>
</svg>
