<svg width="24" height="24" viewBox="0 0 24 24" fill="none" xmlns="http://www.w3.org/2000/svg">
    <path d="M20.1426 7.87386C19.9494 7.13977 19.3699 6.56023 18.6358 6.35739C17.3125 6 12 6 12 6C12 6 6.6875 6 5.35455 6.35739C4.62045 6.55057 4.05057 7.13011 3.84773 7.87386C3.5 9.20682 3.5 11.9886 3.5 11.9886C3.5 11.9886 3.5 14.7705 3.85739 16.1034C4.05057 16.8375 4.63011 17.417 5.3642 17.6199C6.6875 17.9773 12 17.9773 12 17.9773C12 17.9773 17.3125 17.9773 18.6455 17.6199C19.3795 17.4267 19.9494 16.8472 20.1523 16.1034C20.5 14.7705 20.5 11.9886 20.5 11.9886C20.5 11.9886 20.5 9.20682 20.1426 7.87386ZM10.2614 14.5193V9.45795L14.7045 11.9886L10.2614 14.5193Z" fill="black"/>
</svg>
