<svg width="24" height="24" viewBox="0 0 24 24" fill="none" xmlns="http://www.w3.org/2000/svg">
<path d="M18.8104 6.2889C17.2079 4.6875 14.5038 4.6875 12.9014 6.2889L12 6.98952L11.1988 6.2889C9.59634 4.58741 6.89219 4.58744 5.28974 6.18883C3.58714 7.79023 3.58717 10.4926 5.18961 12.0939L5.28974 12.1941L6.09095 12.9948L12 19L17.909 12.9948L18.7103 12.1941C20.4129 10.5927 20.4128 7.89029 18.8104 6.2889Z" stroke="#EE2C00" stroke-width="2" stroke-linecap="round" stroke-linejoin="round"/>
<path d="M4.50047 11.0004L12.0005 17.5004C12.0005 18.0004 16.5009 14.0009 18.5005 12.0004C20.5 10 20.5 8 18.0005 6.00044C15.5009 4.00088 12.5003 7.00024 12.0005 7.00044C11.5007 7.00064 7.50027 3.50022 5.00047 6.00044C2.50068 8.50066 4.50047 11.0004 4.50047 11.0004Z" fill="#EE2C00" stroke="#EE2C00"/>
</svg>
