<svg width="16" height="16" viewBox="0 0 16 16" fill="none" xmlns="http://www.w3.org/2000/svg">
    <g clip-path="url(#clip0_60_6279)">
        <path d="M9.77237 2.52988C9.92662 2.37447 9.92662 2.11906 9.77237 1.96366L8.73406 0.917544C8.40216 0.583149 7.87119 0.58315 7.53929 0.917544L3.85305 4.6315C3.51134 4.97579 3.51134 5.54161 3.85305 5.88589L4.8663 6.90676C5.02238 7.06401 5.27208 7.06402 5.42816 6.90676C5.58424 6.74951 5.83393 6.74951 5.99002 6.90676L6.59049 7.51175L1.04803 13.0959C0.53998 13.6077 0.53998 14.4376 1.04803 14.9495C1.55608 15.4614 2.37978 15.4614 2.88783 14.9495L8.43029 9.36538L8.90393 9.84258C9.05813 9.99794 9.05813 10.2533 8.90393 10.4086C8.74973 10.564 8.74973 10.8193 8.90393 10.9747L10.1964 12.2768C10.5283 12.6112 11.0592 12.6112 11.3911 12.2768L15.0774 8.56287C15.4191 8.21859 15.4191 7.65276 15.0774 7.30848L13.8102 6.03175C13.654 5.87445 13.4043 5.87445 13.2481 6.03175C13.092 6.18905 12.8422 6.18905 12.6861 6.03175L9.77237 3.0961C9.61813 2.9407 9.61813 2.68529 9.77237 2.52988Z" stroke="#0450F2" stroke-width="1.5" stroke-linecap="round"/>
    </g>
    <defs>
        <clipPath id="clip0_60_6279">
            <rect width="16" height="16" fill="white"/>
        </clipPath>
    </defs>
</svg>
