<svg width="16" height="16" viewBox="0 0 16 16" fill="none" xmlns="http://www.w3.org/2000/svg">
    <path d="M13.4111 6.72713C13.4111 11.1816 7.9998 15 7.9998 15C7.9998 15 2.58936 11.1816 2.58936 6.72713C2.58936 5.2082 3.15943 3.75148 4.17416 2.67744C5.18889 1.60339 6.56517 1 8.00022 1C9.43527 1 10.8115 1.60339 11.8263 2.67744C12.841 3.75148 13.4111 5.2082 13.4111 6.72713Z" stroke="#0450F2" stroke-width="1.5" stroke-linecap="round" stroke-linejoin="round"/>
    <path d="M8.00029 7.2729C8.92084 7.2729 9.66708 6.54023 9.66708 5.63645C9.66708 4.73266 8.92084 4 8.00029 4C7.07975 4 6.3335 4.73266 6.3335 5.63645C6.3335 6.54023 7.07975 7.2729 8.00029 7.2729Z" stroke="#0450F2" stroke-width="1.5" stroke-linecap="round" stroke-linejoin="round"/>
</svg>
